<?xml version="1.0" encoding="UTF-8" standalone="no"?>
<svg xmlns="http://www.w3.org/2000/svg" width="744.09448819" height="1052.3622047" viewBox="0 0 744.09448819 1052.3622047" aria-hidden="true">
  <defs />
  <g id="layer2" style="display:inline">
  </g>
  <g id="layer3" style="display:inline">
    <path style="fill:#89c736;fill-opacity:0.48233696;stroke:#0000ff;stroke-width:0.29100001" d="M -149.19953,161.40764 C -149.41462,160.20487 -149.90664,158.20202 -149.90664,156.10434 C -149.90664,154.73206 -150.26019,152.76688 -150.26019,151.15459 C -150.26019,149.38682 -150.26019,147.61906 -150.26019,145.85129 C -150.26019,144.08352 -150.26019,142.31575 -150.26019,140.54799 C -150.26019,139.17571 -150.61374,137.21053 -150.61374,135.59824 C -150.61374,133.57413 -150.9673,132.66953 -150.9673,130.64849 C -150.9673,128.88073 -150.9673,127.11296 -150.9673,125.34519 C -150.9673,123.53867 -150.98863,121.72432 -151.32085,120.39544 C -151.70628,118.85372 -151.32085,116.69072 -151.32085,115.09214 C -151.32085,113.32438 -151.32085,111.55661 -151.32085,109.78884 C -151.32085,107.0899 -149.91398,108.19418 -148.84598,108.72818 C -147.73805,109.28215 -147.16309,111.0333 -146.72466,111.91016 C -146.28917,112.78113 -143.92245,113.4946 -143.18912,113.67793 C -141.52431,114.09413 -141.43891,115.09214 -139.30004,115.09214 C -137.25839,115.09214 -136.34453,114.67505 -135.0574,114.03148 C -133.55799,113.28178 -132.43758,112.61727 -130.4612,112.61727 C -129.38954,112.61727 -127.98701,110.85087 -127.63277,110.1424 C -126.91278,108.70241 -126.37107,107.92056 -125.1579,107.31397 C -123.92857,106.6993 -121.77536,106.86013 -120.56171,106.25331 C -119.12974,105.53733 -117.94064,105.5462 -115.96551,105.5462 C -114.61138,105.5462 -112.81595,104.75881 -111.72287,104.48554 C -109.74151,103.9902 -108.93062,102.75395 -108.89444,102.71777 C -107.96275,101.78608 -108.77659,100.0072 -108.18734,98.828687 C -107.47702,97.408054 -106.23761,96.878963 -105.35891,96.00026 C -104.1789,94.820246 -103.26721,94.262113 -102.17693,93.171833 C -101.04586,92.040766 -100.3142,90.601997 -98.994949,89.282746 C -98.694487,88.982283 -98.287843,88.811341 -97.934289,88.575639 C -97.509371,88.150721 -96.755778,88.339937 -96.166522,88.222086 C -95.577267,88.104235 -97.345033,88.457788 -97.934289,88.575639 C -100.15718,89.020217 -93.951469,86.407452 -91.923882,85.393659 C -90.011701,84.437568 -89.938117,83.761447 -88.741901,82.565231 C -87.760022,81.583353 -86.535061,80.626425 -85.913474,79.383251 C -85.390568,78.337438 -88.247533,77.155561 -88.741901,76.908377 C -89.816689,76.370983 -90.511847,74.784878 -91.216775,74.07995 C -92.060731,73.235994 -93.283517,70.952547 -94.045202,70.190863 C -95.330548,68.905517 -96.415683,68.840666 -96.873629,67.008882 C -97.301543,65.297226 -97.227182,63.942142 -97.227182,62.059135 C -97.227182,61.425555 -99.08474,59.404681 -99.348503,58.877154 C -100.04155,57.491053 -100.66646,56.852089 -101.82338,55.695174 C -102.96579,54.55276 -104.1761,54.87881 -105.00536,53.2203 C -105.56083,52.109347 -103.74019,51.173501 -102.88404,50.745426 C -101.33389,49.970352 -99.36535,49.768943 -98.287843,50.038319 C -97.726057,50.178766 -96.437374,53.03215 -96.166522,53.573853 C -96.07406,53.758777 -92.531515,54.861027 -92.277435,54.988067 C -90.839208,55.707181 -87.921656,55.695174 -86.267027,55.695174 C -84.762835,55.695174 -83.337698,56.983062 -82.37794,57.462941 C -80.916232,58.193795 -80.618889,59.195845 -80.25662,60.644921 C -79.847117,62.282933 -78.645297,63.514014 -78.135299,64.534009 C -77.33269,66.139227 -75.833924,65.254228 -75.306872,67.362436 C -75.033421,68.456239 -73.76157,70.129946 -73.185552,70.89797 C -73.117013,70.989354 -68.551234,70.544416 -67.882251,70.544416 C -67.113527,70.544416 -65.45451,72.972157 -65.053824,73.372843 C -63.899566,74.527102 -62.785528,74.580479 -61.51829,75.847717 C -60.168001,77.198006 -59.069814,78.623349 -58.336309,80.090358 C -57.672508,81.417961 -57.980136,83.992547 -57.629203,85.747212 C -57.290638,87.440035 -57.02975,88.467985 -55.154329,90.343406 C -53.723895,91.77384 -52.776949,91.721197 -52.325902,93.525387 C -52.166852,94.161585 -49.630349,95.403493 -49.143921,95.646707 C -47.474315,96.48151 -46.824854,94.897659 -46.315494,93.87894 C -45.540006,92.327964 -44.997677,91.805818 -43.487067,91.050513 C -41.594675,90.104317 -38.664069,91.485781 -37.830213,92.111173 C -36.644343,93.000575 -35.189394,93.566873 -33.941126,93.87894 C -32.386351,94.267634 -32.49257,96.525523 -32.173359,98.121581 C -32.023954,98.868602 -33.909195,100.01707 -33.587572,101.30356 C -33.317832,102.38252 -30.955993,103.46406 -29.698485,103.77843 C -27.455282,104.33924 -27.711538,104.65516 -27.223611,106.60686 C -26.713777,108.6462 -26.511145,109.09245 -25.809398,110.49595 C -25.666672,110.7814 -22.602137,112.09958 -22.273864,112.26372 C -20.908714,112.94629 -19.96012,113.5168 -19.091883,114.38504 C -18.375073,115.10185 -22.269101,116.50636 -22.98097,116.50636 C -25.077307,116.50636 -26.579867,117.27683 -27.577164,118.27412 C -28.349133,119.04609 -27.930718,122.5447 -27.930718,123.93098 C -27.930718,125.28549 -27.246785,126.3595 -26.516504,127.82007 C -25.822908,129.20726 -25.325438,130.2022 -24.748737,131.3556 C -24.458611,131.93585 -21.284954,132.5751 -20.506097,132.76981 C -19.821248,132.94103 -19.248839,133.57522 -18.73833,133.83047 C -16.934875,134.28133 -15.682096,135.82605 -14.849242,136.6589 C -13.700564,137.80758 -13.395457,138.50581 -12.727922,139.84088 C -12.34016,140.61641 -9.4015211,140.97375 -8.8388348,141.25509 C -7.6050927,141.87197 -6.2359771,142.34775 -4.9497475,142.66931 C -3.3987859,143.05705 -3.0718692,143.96761 -0.70710678,143.37641 C 0.16807714,143.15762 1.2468277,145.88885 1.4142136,146.5584 C 1.7052653,147.7226 2.8637199,149.42212 3.8890873,150.44748 C 5.0389138,151.59731 6.3160803,152.26773 8.131728,153.62946 C 9.156422,154.39798 10.998787,154.53266 12.020815,155.04368 C 13.440531,155.75353 14.090385,157.06367 15.909903,157.51855 C 17.10971,157.8185 18.072326,159.13009 19.091883,159.63987 C 21.238062,160.71296 20.630536,161.52714 22.98097,162.11474 C 26.568367,163.01159 35.406801,162.41684 32.526912,165.29672 C 31.673659,166.14998 31.519031,168.37315 31.112698,169.18581 C 30.355626,170.69996 30.47397,171.94586 29.344931,173.0749 C 28.290839,174.12899 32.53348,173.43502 33.587572,174.48911 C 34.477022,175.37856 35.051234,177.51534 35.355339,178.73175 C 35.505934,179.33413 38.965799,179.43886 39.951533,179.43886 C 41.484587,179.43886 44.206291,179.88383 45.254834,180.14597 C 46.014075,180.33578 45.608387,184.37017 45.608387,185.09571 C 45.608387,187.00959 46.653203,187.86076 47.022601,189.33836 C 47.569654,191.52657 47.677099,191.70801 48.436815,193.22744 C 48.749798,193.85341 50.691538,195.12861 51.265242,195.70232 C 52.337811,196.77489 54.754791,194.48787 55.154329,194.2881 C 55.993934,193.8683 57.907462,192.59563 58.689863,191.81323 C 59.245842,191.25725 62.373883,191.10612 63.286057,191.10612 C 65.755579,191.10612 66.733733,191.01826 67.882251,192.16678 C 68.712607,192.99714 68.942911,195.25116 68.942911,196.40942 C 68.942911,197.29014 67.109505,200.20751 66.821591,201.35917 C 66.226836,203.73819 66.213409,202.87231 67.882251,204.54115 C 68.962454,205.62135 69.800191,206.10554 70.710678,207.01603 C 72.29331,208.59866 71.952391,209.71294 73.892659,210.19801 C 74.634439,210.38345 76.272985,212.22478 76.721086,212.67288 C 77.844118,213.79591 79.421604,213.84636 80.610173,214.44065 C 82.955351,215.61324 79.614361,214.44065 80.963727,214.44065 C 82.439266,215.17842 82.024387,218.91494 82.024387,220.45105 C 82.024387,222.37847 81.670833,223.92033 81.670833,225.75435 C 81.670833,227.84149 81.433626,229.53161 80.963727,231.41121 C 80.450413,233.46446 81.285313,234.88281 82.024387,236.36096 C 83.160349,238.63288 83.178867,239.41307 84.852814,240.25004 C 86.497321,241.0723 87.580975,241.21044 88.741901,242.37136 C 90.416041,244.0455 96.597318,243.43202 99.348503,243.43202 C 100.38539,243.43202 101.77066,245.80147 102.17693,246.614 C 103.17665,248.61345 104.18473,251.45023 105.35891,252.62441 C 105.90407,253.16957 103.28044,256.78135 103.23759,256.86705 C 102.54096,258.26032 101.76729,259.41671 100.76272,260.75614 C 99.84095,261.98516 98.927271,262.30571 98.287843,263.58457 C 97.555335,265.04958 97.305675,265.74547 96.873629,267.47365 C 96.397849,269.37678 96.166522,270.83285 96.166522,273.13051 C 96.166522,275.30797 95.574404,275.72037 96.873629,277.0196 C 97.845021,277.99099 99.034039,278.63013 100.05561,279.14092 C 101.17855,279.70239 101.46982,281.62418 101.46982,283.03 C 101.46982,285.14418 101.55803,285.32846 100.76272,286.91909 C 99.999796,288.44493 100.04116,289.68972 100.40916,291.16173 C 100.58097,291.84896 98.227982,293.69647 97.934289,293.99016 C 97.600956,294.32349 97.934289,294.93297 97.934289,295.40437 C 96.507851,296.83081 98.641396,299.39749 98.641396,301.41478 C 98.641396,303.41569 96.840628,303.14955 98.641396,304.95031 C 99.859107,306.16803 99.914169,306.94789 101.82338,307.42519 C 103.84289,307.93007 105.52417,308.48585 107.48023,308.48585 C 109.48489,308.48585 111.19344,309.06105 112.78353,310.25362 C 114.87385,311.82135 115.37982,311.09284 115.96551,313.4356 C 116.49941,315.57118 117.93923,315.87357 119.50105,316.26402 C 121.37053,316.73139 120.89794,318.4546 120.56171,319.79956 C 120.19341,321.27276 118.97607,322.26373 118.44039,323.33509 C 117.42499,325.36589 119.06088,325.74501 120.56171,326.87062 C 121.76735,327.77486 122.03835,329.1168 122.68303,330.40616 C 123.40046,331.84102 124.09724,333.00878 124.09724,335.00235 C 124.09724,336.16573 125.51145,337.27528 125.51145,339.24499 C 125.51145,340.09068 126.35644,342.62495 126.57211,343.48763 C 126.97456,345.0974 128.23936,345.86198 129.04699,346.66961 C 130.08845,347.71108 131.02796,348.54398 132.22897,349.14449 C 134.58705,350.32353 137.55189,351.18734 138.23938,348.43738 C 138.5911,347.0305 140.10233,346.64582 141.42136,346.31606 C 143.37524,345.82759 144.46134,345.50317 145.664,344.90185 C 147.39378,344.03696 147.43176,343.64766 147.43176,341.01276 C 147.43176,339.03042 146.99775,337.4455 147.43176,335.70946 C 148.01438,333.379 148.2483,333.6155 149.55308,333.94169 C 151.57917,334.44821 152.60149,335.92944 153.44217,336.77012 C 154.82022,338.14817 154.64256,338.78453 156.2706,339.59855 C 157.38488,340.15569 160.29526,339.59855 161.5739,339.59855 C 163.45952,339.59855 165.34514,339.59855 167.23075,339.59855 C 168.96839,339.59855 170.95848,339.6466 172.1805,339.9521 C 173.40515,340.25826 174.22247,341.91472 174.65538,342.78053 C 175.33935,344.14849 175.90688,345.09269 176.7767,345.96251 C 177.88902,347.07483 178.16463,348.05755 179.25157,349.14449 C 180.46557,350.35849 181.71517,351.7905 182.7871,352.32647 C 184.24979,353.05781 184.92567,353.40438 185.96908,354.44779 C 186.85297,355.33167 186.85297,357.09944 187.73685,357.98332 C 188.33378,358.58025 188.61399,361.84542 188.79751,362.57952 C 189.2021,364.19786 190.02042,365.02533 190.56528,366.11505 C 191.3637,367.71189 191.81029,368.50533 193.3937,369.29703 C 194.72555,369.96295 196.76148,369.65058 198.34345,369.65058 C 200.38898,369.65058 200.88796,369.9345 202.23254,368.58992 C 203.37937,367.44309 205.04505,366.56893 206.12163,365.7615 C 207.37795,364.81926 208.44581,364.0314 210.01071,363.64018 C 211.49027,363.27029 212.86831,361.84324 213.54625,361.1653 C 214.5634,360.14815 213.7332,356.96337 213.54625,356.21556 C 213.2512,355.03538 211.3571,353.98889 210.36427,353.74068 C 208.45975,353.26455 211.06996,351.08974 211.42493,350.91226 C 213.38201,349.93371 214.70069,350.46492 216.02112,349.14449 C 217.41849,347.74712 219.09903,348.20857 220.26376,348.79093 C 222.1096,349.71385 222.85453,350.76445 224.85996,351.26581 C 226.3677,351.64274 227.93675,350.78807 229.1026,350.20515 C 229.73823,349.88733 230.65064,346.75552 230.87036,346.31606 C 231.6138,344.82919 232.07157,343.91365 232.63813,342.78053 C 233.70942,340.63794 236.18898,343.8565 236.88077,344.54829 C 238.24804,345.91556 237.83391,346.31606 240.41631,346.31606 C 241.99236,346.31606 242.53763,343.99933 242.53763,342.42697 C 242.53763,339.49068 244.8785,341.12254 246.07316,341.71987 C 247.28409,342.32533 248.26208,344.15705 249.25514,344.90185 C 250.97951,346.19512 251.11527,346.8233 253.14423,346.31606 C 254.13544,346.06826 254.03054,342.41238 254.20489,341.36631 C 254.60912,338.94092 254.60042,338.80749 255.6191,336.77012 C 256.59845,334.81142 256.81102,334.75995 258.44753,333.94169 C 260.14726,333.09183 260.40804,332.17393 262.69017,332.17393 C 262.92587,332.17393 263.16157,332.17393 263.39728,332.17393 C 264.3674,332.17393 264.66449,327.45864 264.81149,326.87062 C 265.19635,325.3312 265.819,324.60834 266.2257,322.98154 C 266.5955,321.50235 268.66384,320.87859 270.11479,320.15311 C 271.6009,319.41006 272.98885,318.55071 275.06454,318.03179 C 276.85647,317.58381 278.68385,317.74568 280.36784,317.32468 C 281.56056,317.0265 282.95318,315.67846 283.90337,315.20336 C 285.37509,314.4675 286.27903,313.81395 287.79246,313.4356 C 289.66282,312.96801 290.81477,311.92444 292.0351,311.31428 C 293.93016,310.36675 295.42227,310.70976 296.63129,311.31428 C 297.91401,311.95563 298.35605,313.06053 299.81328,313.78915 C 301.35194,314.55848 301.73455,315.4769 303.70236,316.26402 C 305.59775,317.02218 308.18682,316.63992 310.06632,316.26402 C 312.33016,315.81126 313.05213,316.00245 314.30896,317.67824 C 315.35887,319.07811 316.16005,320.94354 317.13739,321.92088 C 320.73972,325.52321 323.80331,329.95549 329.51176,333.58814 C 331.12192,334.61279 329.52545,336.71537 329.15821,338.18433 C 328.77568,339.71444 330.15655,341.59523 330.57242,342.42697 C 331.2161,343.71433 332.9493,341.76886 334.46151,341.01276 C 335.99152,340.24775 338.53208,341.36631 340.11836,341.36631 C 341.34876,341.36631 342.78387,341.17568 343.6539,340.30565 C 343.82962,340.12993 345.3348,339.9521 347.54298,339.9521 C 350.031,339.9521 349.28343,343.24335 348.9572,344.54829 C 348.34838,346.98355 348.44185,348.05387 347.54298,349.85159 C 346.56405,351.80947 346.64093,353.10627 346.12877,355.1549 C 345.74952,356.67188 345.77522,358.38383 345.77522,360.10464 C 345.77522,361.31181 344.47453,362.81955 343.6539,363.64018 C 342.80125,364.49282 342.94679,366.55011 342.94679,368.23637 C 342.94679,369.48832 344.40336,370.52712 344.71456,371.77191 C 345.12244,373.40344 346.74599,373.95914 347.89654,374.24678 C 348.83388,374.48112 349.04826,375.06504 350.01786,375.30744 C 352.71286,375.98119 350.19005,380.26635 350.01786,380.61074 C 349.94332,380.75981 349.78215,380.84644 349.6643,380.96429 C 348.48568,382.14292 347.95939,382.48065 347.54298,384.14627 C 347.12293,385.82649 347.16164,387.38384 346.48232,388.74247 C 345.63023,390.44665 344.71456,389.5754 344.71456,392.278 C 344.71456,393.94971 350.97841,398.54185 352.13918,399.70262 C 353.14264,400.70609 351.44144,402.56852 351.78562,403.94526 C 352.21872,405.67766 354.86845,405.35948 356.38182,405.35948 C 358.37281,405.35948 359.30348,404.91269 360.27091,403.94526 C 362.0157,402.20047 363.23093,405.97623 363.45289,406.42014 C 363.52742,406.56921 363.68859,406.65584 363.80644,406.77369 C 364.94042,407.90767 365.42719,408.89501 368.04908,408.89501 C 369.6655,408.89501 371.11124,407.71748 372.29172,407.12724 C 374.13116,406.20752 375.75189,407.53289 375.12015,405.00592 C 374.51378,402.58043 373.45119,404.10119 374.41304,402.1775 C 375.0254,400.95278 379.80016,401.47039 381.13056,401.47039 C 383.00186,401.47039 384.78357,400.73391 386.0803,400.40973 C 387.88052,399.95968 389.01825,399.67524 390.32294,399.34907 C 393.36411,398.58878 392.28299,401.08584 391.73716,402.1775 C 390.92817,403.79547 391.43183,406.25949 391.73716,407.4808 C 392.11403,408.98828 392.79782,409.46833 392.79782,411.72344 C 392.79782,413.10705 395.62875,414.26952 397.04046,414.55187 C 398.83595,414.91096 400.2565,414.90542 402.34376,414.90542 C 404.11153,414.90542 405.87929,414.90542 407.64706,414.90542 C 408.71849,414.90542 407.18799,417.09524 406.93995,418.0874 C 406.44271,420.07636 406.39757,421.62293 408.70772,421.62293 C 409.47072,421.62293 411.14252,423.38068 412.59681,423.74425 C 413.37175,423.93799 413.4496,427.50897 413.65747,428.34045 C 414.13498,430.25048 418.12447,432.41988 418.60721,434.35086 C 418.91598,435.58591 421.42955,435.85193 422.4963,436.11862 C 428.36764,437.58646 435.19095,438.6345 441.23463,440.36126 C 442.21146,440.64036 441.94174,443.90274 441.94174,444.95746 C 441.94174,447.26302 442.99053,448.44551 443.35595,449.9072 C 443.55464,450.70196 444.3657,450.66451 444.77017,450.96786 C 444.99513,451.8677 449.0059,453.61606 449.36636,453.79629 C 451.10328,454.66475 451.75279,455.47561 452.90189,456.62472 C 454.55328,458.2761 454.40236,458.96594 456.08387,459.8067 C 456.83855,460.18404 456.62347,463.73287 456.79098,464.40289 C 457.22385,466.13436 458.50952,467.45956 459.61941,468.29198 C 460.84269,469.20944 461.41702,470.07467 462.80139,470.76685 C 463.2383,470.98531 464.8376,473.51017 465.27626,473.94884 C 466.23969,474.91227 467.01432,476.30488 467.39758,477.83792 C 467.92524,479.94857 468.84927,483.29112 469.5189,485.96965 C 469.90359,487.50839 470.79172,488.51529 471.64022,490.21229 C 472.49926,491.93036 473.54397,493.31267 474.1151,494.45493 C 474.7892,495.80314 475.58429,496.68621 476.23642,497.99047 C 477.43773,500.3931 477.52041,501.39578 480.47906,504.35443 C 481.91453,505.7899 482.28873,506.9131 482.95393,508.24351 C 483.80274,509.94114 486.89427,512.52459 488.25723,513.54681 C 489.81092,514.71208 491.32101,516.13936 492.49987,516.7288 C 493.23367,517.09569 494.34354,519.35547 494.62119,519.91078 C 497.34027,525.34894 509.15423,528.12442 514.77374,529.81027 C 515.02615,529.88599 514.30233,529.57457 514.06663,529.45672 C 515.10138,529.76715 512.67964,534.35201 512.65242,534.40646 C 511.88624,535.93882 510.95962,537.15992 510.17754,537.942 C 508.9484,539.17114 507.92097,539.49147 506.99556,540.41687 C 506.14568,541.26675 505.60535,542.84375 504.87424,544.30596 C 504.18493,545.68458 503.41447,546.16485 502.75292,547.48794 C 502.10822,548.77734 500.93658,548.99931 500.27805,550.31637 C 499.47632,551.91983 499.35073,552.6579 498.15673,553.8519 C 496.96646,555.04216 497.09607,555.98164 497.09607,558.09454 C 497.09607,559.03551 499.69852,559.9261 500.27805,560.21586 C 501.82849,560.99108 501.93388,561.88946 502.39937,563.7514 C 502.82894,565.46967 502.08081,567.14694 501.69226,568.70114 C 501.20141,570.66453 501.07711,571.51532 500.6316,573.29734 C 500.10317,575.41105 500.01416,576.29999 499.21739,577.89353 C 498.57013,579.18804 497.2979,579.81302 496.38896,580.72196 C 495.21034,581.90058 494.68405,582.23832 494.26764,583.90394 C 493.9591,585.1381 492.98055,586.47813 492.49987,587.43947 C 491.82442,588.79038 491.81048,590.55061 491.43921,592.03567 C 490.94887,593.99703 491.78353,595.53427 492.14632,596.98542 C 492.16455,597.05832 494.95404,600.36859 495.68185,601.58161 C 496.58667,603.08964 498.15673,605.34399 498.15673,607.23846 C 498.15673,609.62253 498.09864,610.5827 500.27805,611.12755 C 502.54086,611.69325 502.57039,612.16521 503.10648,614.30953 C 503.60848,616.31755 503.22426,617.7275 502.75292,619.61283 C 502.41668,620.9578 501.53528,622.75522 500.6316,624.56258 C 499.82261,626.18055 500.32627,628.64457 500.6316,629.86588 C 501.12378,631.83461 500.98515,634.06535 500.98515,636.22984 C 500.98515,637.99761 500.98515,639.76538 500.98515,641.53314 C 500.98515,643.60474 500.54137,644.35418 500.98515,646.12934 C 501.01387,646.2442 505.92042,650.71105 506.28846,651.07908 C 507.27042,652.06105 508.51737,653.98432 508.76333,654.96817 C 509.31933,657.19218 509.31938,660.16859 508.76333,662.39279 C 508.29445,664.2683 507.34912,665.36437 507.34912,668.04965 C 507.34912,670.44497 506.79367,670.97852 506.28846,672.99939 C 505.8182,674.88043 504.94165,675.91174 504.52069,677.59559 C 504.06088,679.43481 505.34036,679.77319 506.64201,680.42402 C 507.93153,681.06877 510.11064,680.84923 511.2382,681.13112 C 512.24174,681.38201 512.96588,683.40917 514.06663,683.95955 C 515.90865,684.88056 517.74228,683.46588 518.30927,682.89889 C 519.21633,681.99183 519.07685,681.9499 519.36993,680.77757 C 520.67164,679.47586 522.08219,683.37366 522.90547,685.02021 C 523.61183,686.43295 524.54132,686.89879 525.73389,687.49508 C 527.00983,688.13305 527.81963,689.06828 528.91587,689.6164 C 530.21546,690.2662 531.73753,690.67537 533.15851,691.03062 C 535.2407,691.55116 535.62773,692.43353 536.34049,693.85904 C 536.99597,695.17 538.86316,696.38171 539.52247,697.04102 C 540.34671,697.86526 541.13923,699.36489 541.99735,700.22301 C 543.37707,701.60272 544.39786,702.40042 544.82578,704.11209 C 545.34136,706.17444 545.03176,706.86673 546.59354,707.64763 C 548.27429,708.488 550.05189,708.69285 551.89684,709.06184 C 552.6204,709.20655 553.79653,711.80056 554.01816,712.24382 C 554.81599,713.83948 554.99675,714.50088 556.84659,715.4258 C 558.74431,716.37466 558.87084,713.14507 559.32146,712.24382 C 559.94421,710.99832 562.73765,710.18217 563.56411,709.76895 C 564.73453,709.18373 565.40034,707.55633 566.39253,706.23341 C 567.49045,704.76952 570.37607,704.8192 572.40294,704.8192 C 574.28856,704.8192 576.17418,704.8192 578.05979,704.8192 C 579.75009,704.8192 581.2813,703.562 582.30243,703.05143 C 584.09478,702.15526 584.28964,702.17366 584.77731,700.22301 C 585.16739,698.66267 586.176,698.10168 587.95929,698.10168 C 589.12881,698.10168 589.48346,700.66285 589.72706,701.63722 C 589.92853,702.4431 593.12439,702.34433 594.32325,702.34433 C 595.83702,702.34433 597.07794,701.3021 598.56589,700.93011 C 600.66792,700.40461 601.56316,699.86945 603.86919,699.86945 C 605.67221,699.86945 606.65802,701.27377 608.11183,701.63722 C 609.52922,701.99157 610.98895,702.71005 612.35447,703.05143 C 614.11153,703.4907 614.13687,704.4949 614.82935,705.87986 C 615.45704,707.13524 615.1829,709.2089 615.1829,710.82961 C 615.1829,712.98607 615.27626,714.55185 615.89001,715.77935 C 616.48386,716.96707 615.80337,720.01498 615.53645,721.08266 C 615.16767,722.55778 613.99677,723.683 613.06158,724.61819 C 612.07021,725.60955 611.23466,727.32968 610.94026,728.50728 C 610.42542,730.56663 610.17216,731.45769 609.52605,732.74992 C 609.00867,733.78468 606.54235,733.68337 605.63696,733.45702 C 603.97553,733.04167 602.93384,731.72059 601.39432,731.3357 C 599.26655,730.80376 598.6536,731.29185 597.15168,732.04281 C 596.36931,732.43399 596.44457,735.37736 596.44457,736.639 C 596.44457,738.17739 594.68527,739.20015 593.61614,739.46743 C 591.6249,739.96524 590.65771,740.23954 589.3735,740.88165 C 586.72765,742.20457 586.88624,741.99188 586.19152,744.77073 C 586.03922,745.37993 581.36006,745.12429 580.53467,745.12429 C 578.34177,745.12429 577.03169,745.83139 575.23137,745.83139 C 573.29284,745.83139 572.89713,747.45852 572.04939,748.30627 C 570.75355,749.60211 572.40294,751.27892 572.40294,752.54891 C 572.40294,753.74234 572.75649,755.79377 572.75649,757.49865 C 572.75649,759.69771 572.33493,760.81665 571.69583,762.09485 C 571.16753,763.15145 568.45216,763.89346 567.80675,764.21617 C 566.02736,765.10586 564.8326,763.73839 564.27121,765.98394 C 563.94531,767.28753 566.50305,767.50866 567.45319,768.45881 C 568.51998,769.52559 569.25326,770.70932 569.57451,771.99434 C 570.04207,773.86456 570.45223,774.84743 569.92807,776.94409 C 569.54025,778.49536 568.91136,779.39699 567.45319,780.12607 C 565.91045,780.89744 565.1492,779.58985 564.27121,778.71186 C 563.23983,777.68047 561.55911,777.68028 560.02857,777.29764 C 558.67584,776.95946 555.30371,778.24586 554.37172,778.71186 C 552.63407,779.58068 551.04048,779.84715 549.77552,780.47963 C 548.18606,781.27436 547.31684,781.46634 545.17933,781.89384 C 543.22592,782.28452 542.34468,782.86767 540.58313,783.30805 C 538.72168,783.77342 537.62886,784.07808 536.34049,784.72227 C 534.73915,785.52294 533.94646,786.11627 532.45141,786.49003 C 530.67075,786.9352 529.87974,787.13295 528.20877,787.55069 C 526.73343,787.91953 525.14246,788.31727 523.96613,788.61135 C 522.17596,789.05889 521.4476,789.24098 519.72348,789.67201 C 518.2732,790.03459 517.31526,790.71601 515.8344,791.08623 C 514.39994,791.44484 513.16629,791.75325 511.59176,792.14689 C 510.15959,792.50493 508.36206,793.40818 507.34912,793.91465 C 506.17865,794.49989 503.84537,794.34865 502.75292,794.62176 C 500.86591,795.09351 499.66097,795.46063 498.51028,796.03597 C 497.49266,796.54479 496.43886,796.22522 495.68185,796.03597 C 493.84095,796.95642 498.15673,799.63465 498.15673,801.69283 C 498.15673,803.14243 499.43437,804.60167 499.92449,805.58192 C 500.45065,806.63423 502.08067,807.73809 502.75292,808.41034 C 503.57125,809.22867 503.49424,811.37561 503.81358,812.65298 C 504.19086,814.16211 504.65306,815.26023 505.58135,816.18852 C 506.70625,817.31341 507.31476,817.81888 507.70267,819.3705 C 508.10379,820.97499 508.76333,821.6485 508.76333,823.61314 C 508.76333,824.58914 507.08794,826.61037 506.64201,827.50223 C 505.87634,829.03356 505.24997,829.88841 504.87424,831.39131 C 504.42551,833.18626 504.18894,834.48609 503.81358,835.98751 C 503.47636,837.33638 502.72829,838.56093 502.39937,839.87659 C 502.10697,841.04619 500.92666,842.40996 500.27805,843.05858 C 499.19599,844.14063 498.50586,844.83518 497.80317,846.24056 C 497.12999,847.58692 496.74251,848.47552 496.74251,850.4832 C 496.74251,852.32306 497.44203,853.28126 497.80317,854.72584 C 497.9577,855.34395 498.50394,854.95942 498.86383,855.07939 C 498.98168,855.5508 499.09954,856.0222 499.21739,856.4936 C 499.68924,858.38101 499.52635,859.27744 500.6316,860.38269 C 501.83803,861.58912 502.05529,862.83862 501.33871,864.27178 C 500.43455,866.0801 501.56492,866.85976 502.75292,867.45376 C 504.48452,868.31956 505.20555,868.46993 505.9349,869.92863 C 506.86595,871.79072 505.58135,872.80953 505.58135,874.52483 C 505.58135,876.39871 504.40587,877.24751 504.87424,879.12102 C 505.2644,880.68164 507.55577,882.45799 508.76333,883.36366 C 509.52382,883.93403 510.62896,886.22998 510.88465,887.25275 C 511.02392,887.80983 517.28387,888.78179 517.60216,889.02052 C 519.63408,890.54445 519.5712,893.71466 520.07704,895.73803 C 520.19489,896.20943 520.31274,896.68084 520.43059,897.15224 C 520.85153,898.83601 521.8448,899.04931 521.8448,901.39488 C 521.8448,902.99875 522.67337,905.17334 523.25902,906.34463 C 523.91984,907.66627 523.97351,909.20259 524.31968,910.58727 C 524.67046,911.99039 525.67143,912.81228 526.08745,914.47636 C 526.45809,915.95892 526.79455,917.05948 526.79455,919.07255 C 526.79455,920.96949 526.37687,921.998 526.79455,923.66875 C 527.18668,925.23725 526.71404,927.52635 526.441,928.6185 C 525.99297,930.41062 527.37258,930.64442 526.441,932.50758 C 525.93504,933.5195 523.55507,933.9793 522.90547,934.6289 C 522.47141,935.06296 520.85091,931.71397 520.78414,931.44692 C 520.41947,929.98824 518.84498,929.67916 517.24861,929.67916 C 515.93477,929.67916 515.8344,932.43193 515.8344,933.56824 C 515.8344,936.22288 513.39701,943.00171 513.00597,944.17485 C 512.85231,944.63582 511.93535,943.4777 511.59176,943.82129 C 510.57239,944.84066 508.91047,945.03676 507.70267,945.94261 C 506.73118,946.67123 504.21952,946.80031 503.10648,947.35683 C 501.75628,948.03193 501.0736,950.00835 500.6316,950.89236 C 500.40799,951.33957 499.92449,951.59947 499.57094,951.95302 C 498.87138,953.35215 502.56309,956.05981 503.10648,956.19566 C 504.98977,956.66648 505.93679,955.84305 507.34912,956.54921 C 508.52763,957.13847 505.58135,958.76713 505.58135,960.08475 C 505.58135,961.45703 505.2278,963.4222 505.2278,965.0345 C 505.2278,966.80226 505.2278,968.57003 505.2278,970.3378 C 505.2278,972.47847 505.76255,975.65878 506.28846,977.76242 C 506.72648,979.51451 508.38206,981.1871 508.76333,982.71216 C 509.31733,984.92815 509.05952,987.02154 509.47044,989.07613 C 509.56573,989.5526 509.70614,990.01893 509.82399,990.49034 C 510.31476,992.45341 510.1455,994.31533 510.88465,995.79364 C 511.5123,997.04894 511.59176,998.71317 511.59176,1000.3898 C 511.59176,1001.9154 511.88843,1003.6978 512.29886,1005.3396 C 512.78118,1007.2688 511.64846,1008.4649 510.88465,1009.2287 C 509.38382,1010.7295 509.94158,1011.468 508.05622,1012.4106 C 506.4866,1013.1955 504.09178,1013.8625 502.75292,1014.532 C 501.38673,1015.2151 498.71549,1014.8855 497.09607,1014.8855 C 495.21045,1014.8855 493.32483,1014.8855 491.43921,1014.8855 C 489.14272,1014.8855 487.20043,1014.3562 485.07525,1013.8249 C 484.49227,1013.6791 483.89674,1013.5892 483.30749,1013.4713 C 481.22611,1013.055 480.51709,1012.4297 479.06484,1011.7035 C 477.97547,1011.1589 476.3883,1010.5925 475.17576,1010.2893 C 473.5268,1009.8771 472.77244,1008.5931 471.99378,1007.8145 C 471.05134,1006.872 470.80518,1005.0837 470.22601,1003.9254 C 469.41227,1002.2979 469.59743,1001.6665 467.75114,1000.7434 C 466.08933,999.91248 464.54006,1000.0363 462.44784,1000.0363 C 461.2544,1000.0363 459.20297,999.68273 457.49809,999.68273 C 455.54992,999.68273 454.5604,999.21991 453.609,998.26851 C 452.11225,996.77176 451.54833,996.03623 451.13413,994.37943 C 450.74393,992.81865 449.78459,991.32681 449.01281,989.78323 C 448.36402,988.48565 447.97635,986.66177 447.24504,984.83348 C 446.56449,983.13212 445.76801,981.17232 444.77017,979.17663 C 443.85065,977.33759 443.09683,977.52086 441.23463,977.05531 C 439.41247,976.59977 438.52465,976.822 438.05265,974.93399 C 437.69639,973.50894 437.69536,971.76697 438.05265,970.3378 C 438.72391,967.65277 436.50261,966.73435 434.51712,965.7416 C 431.91797,964.44203 430.33185,966.15253 428.50671,964.32739 C 427.57256,963.39324 426.28044,962.68392 425.32473,962.20607 C 423.55123,961.31932 422.8427,960.61329 420.72854,960.08475 C 419.44776,959.76455 419.28328,957.13217 418.96077,955.84211 C 418.58382,954.33432 418.08743,952.68122 417.54655,951.59947 C 416.8765,950.25936 416.47475,948.3952 415.77879,947.00327 C 415.17948,945.80467 415.49511,943.54177 415.77879,942.40708 C 416.18221,940.79338 417.755,940.95659 419.31432,941.34642 C 420.74881,941.70504 422.40516,941.69997 424.26407,941.69997 C 425.44078,941.69997 427.12435,939.91628 427.7996,939.57865 C 429.39409,938.78141 430.94557,938.52699 432.3958,938.16444 C 433.92631,937.78181 434.55189,936.47637 436.28488,936.04312 C 437.90048,935.63922 438.58726,934.89193 439.82042,934.27535 C 441.24408,933.56352 441.55923,934.59995 442.64885,935.68956 C 443.64206,936.68278 445.65479,936.39667 447.24504,936.39667 C 448.68211,936.39667 449.36636,934.29846 449.36636,932.86114 C 449.36636,931.67987 448.05247,929.8798 447.59859,928.97205 C 446.84686,927.46859 446.64121,926.55674 446.18438,924.72941 C 445.83038,923.31342 444.82716,922.31153 444.06306,921.54743 C 443.01068,920.49505 441.78731,920.01739 440.52753,919.07255 C 439.32593,918.17136 437.58005,917.2155 436.28488,916.24413 C 435.26735,915.48098 434.80672,913.86702 434.51712,912.70859 C 434.20937,911.47762 436.58999,909.00196 436.99199,908.46595 C 437.86696,907.29933 438.05265,905.80374 438.05265,904.22331 C 438.05265,902.62013 437.35807,901.76097 436.28488,900.68778 C 435.43329,899.83618 433.56898,898.67898 432.74935,897.85935 C 432.43581,897.54581 432.74935,892.98058 432.74935,891.84894 C 432.74935,890.21128 431.2964,889.2966 430.62803,887.95986 C 429.76221,886.22822 428.29695,886.4137 427.7996,884.42432 C 427.35772,882.65677 426.00623,880.38325 425.32473,879.47457 C 424.29756,878.10501 423.14059,876.87407 422.4963,875.58549 C 421.76343,874.11974 421.11145,873.22807 420.72854,871.6964 C 420.37907,870.29853 419.837,869.0371 418.96077,868.16087 C 417.87311,867.07321 417.61836,866.49944 415.77879,866.03955 C 413.57336,865.48819 413.54863,864.74769 411.18259,863.56467 C 409.8217,862.88422 409.09631,860.77128 408.00061,859.67558 C 407.01131,858.68628 406.2507,857.62567 405.87929,856.14005 C 405.56451,854.88091 404.50251,854.16846 404.11153,852.60452 C 403.59281,850.52965 403.68659,849.63332 403.05087,848.36188 C 402.9439,848.14794 399.94315,850.76248 399.86889,850.83675 C 398.985,851.72063 398.63145,853.13485 397.74756,854.01873 C 396.86001,854.90629 394.25654,854.8031 393.15137,855.07939 C 392.61392,855.21375 390.35857,853.49731 389.61584,853.31162 C 388.18631,852.95424 387.2518,851.57378 386.43386,850.4832 C 385.55889,849.31657 385.3732,847.82098 385.3732,846.24056 C 385.3732,843.91236 383.81632,843.8184 382.19122,843.41213 C 381.77829,843.3089 379.60764,838.87047 379.36279,838.46238 C 378.64305,837.26282 377.61887,835.19434 376.88791,834.21974 C 375.91121,832.91747 375.82725,831.98396 375.82725,829.9771 C 375.82725,828.52915 376.17346,826.76573 375.82725,825.38091 C 375.32464,823.37043 375.09548,822.85671 374.41304,821.49182 C 374.12981,820.92535 371.48964,820.03012 370.87751,819.72405 C 369.6969,819.13375 367.78325,819.01694 366.28131,819.01694 C 363.61391,819.01694 363.94223,818.49944 363.45289,816.54207 C 362.96124,814.57551 362.47384,814.50237 361.33157,813.36009 C 360.50444,812.53297 358.36223,812.17581 357.44248,811.94588 C 355.3093,811.41258 354.9378,813.12575 354.61405,814.42075 C 354.13535,816.33557 351.45188,814.087 351.07852,813.71364 C 350.35011,812.98524 348.2791,812.57185 347.18943,812.29943 C 345.48308,811.87284 344.47425,811.62063 342.94679,811.23877 C 341.91114,810.97986 341.05775,808.99618 340.47192,808.41034 C 339.4787,807.41712 337.46597,807.70324 335.87572,807.70324 C 334.61328,807.70324 331.832,807.17733 330.92597,806.99613 C 329.93561,806.79806 329.18667,804.54972 328.4511,803.81415 C 326.47572,801.83877 326.45765,802.86633 324.56201,803.81415 C 322.40841,804.89095 321.59185,807.24378 319.96582,808.05679 C 318.04067,809.01936 317.4052,806.65315 317.13739,805.58192 C 316.77182,804.11965 315.87299,803.05311 315.36962,802.04638 C 314.72974,800.76661 314.00316,798.81022 313.2483,797.80374 C 312.27011,796.49948 311.52768,796.05955 310.06632,795.32887 C 308.96811,794.77976 308.73649,792.6692 308.29856,791.79333 C 307.59078,790.37778 306.14496,788.93263 305.11658,787.90425 C 304.69991,787.48758 304.17377,787.19714 303.70236,786.84359 C 302.46544,785.9159 301.786,785.28078 300.87394,784.36871 C 299.51936,783.01414 300.88582,781.54029 298.04551,781.54029 C 296.16264,781.54029 294.94297,781.20659 293.44931,780.83318 C 291.34828,780.30792 290.17547,779.72658 288.85312,779.06541 C 287.11201,778.19486 287.09362,775.91648 286.7318,774.46922 C 286.44465,773.32063 287.53362,770.46013 287.79246,769.16592 C 288.09755,767.64045 288.51165,766.28914 288.85312,764.92328 C 289.34448,762.95786 289.34657,762.1648 287.79246,761.38774 C 286.01722,760.50012 285.47579,760.83884 284.25693,759.61997 C 283.2457,758.60874 283.02207,756.97091 282.13561,756.08444 C 279.83365,753.78249 278.95363,755.38183 278.95363,751.8418 C 278.95363,750.02126 279.81776,749.2099 280.72139,748.30627 C 281.95199,747.07567 283.606,746.58475 284.61048,745.83139 C 285.98119,744.80336 286.81369,744.33529 287.79246,743.35652 C 288.78958,742.3594 289.90737,741.76873 290.97444,741.2352 C 292.44105,740.5019 294.4869,740.19184 295.92419,739.11388 C 296.97828,738.32331 294.47599,736.85662 294.15642,735.57834 C 293.7785,734.06667 293.52473,733.05156 293.09576,731.3357 C 292.65613,729.57716 293.67301,728.05988 294.15642,727.09306 C 295.04284,725.32022 295.29022,725.11802 294.50997,723.55753 C 293.87493,722.28744 292.61195,721.7572 291.32799,721.43621 C 289.22539,720.91056 287.63581,721.38698 286.02469,721.78976 C 284.07567,722.27702 283.83097,721.57679 282.13561,720.7291 C 280.71877,720.02068 279.40271,718.70331 278.24652,717.54712 C 277.55373,716.85433 276.9018,714.85769 276.47875,714.01159 C 275.60604,712.26617 275.02202,711.45168 274.35743,710.1225 C 273.69884,708.80532 273.07737,707.78178 272.23611,706.94052 C 271.2928,705.9972 269.65781,704.59071 268.70058,704.11209 C 267.37524,703.44942 266.12535,702.67279 264.81149,702.34433 C 263.07589,701.47653 259.9903,701.99077 258.09398,701.99077 C 255.52944,701.99077 252.73791,697.79562 251.37646,695.98036 C 250.47374,694.77674 249.50291,693.80615 248.19448,693.15194 C 246.72495,692.41717 243.23459,692.79838 241.47697,692.79838 C 239.96744,692.79838 239.40688,690.88199 239.00209,689.26285 C 238.53069,687.37726 238.61795,686.14204 239.35565,684.66666 C 240.15134,683.07526 240.68302,682.18558 241.12341,680.42402 C 241.68244,678.1879 241.12538,677.59755 240.06275,676.53493 C 239.04017,675.51235 239.35565,673.60686 239.35565,671.93873 C 239.35565,669.78802 237.33539,670.49925 235.82011,670.87807 C 232.3531,671.74483 230.87798,671.32573 228.39549,669.46386 C 228.25242,669.35656 223.91466,670.99717 223.44574,671.23163 C 222.01856,671.94522 221.00392,672.80609 219.91021,673.35295 C 217.95573,674.33019 217.36125,675.53149 216.72823,672.99939 C 216.29199,671.25443 215.33051,670.23695 214.96046,668.75675 C 214.74475,667.89389 210.75858,667.88306 210.01071,667.69609 C 208.65742,667.35777 206.98863,665.87147 206.12163,665.22122 C 204.01599,663.64199 203.36527,662.03924 200.46477,662.03924 C 197.69506,662.03924 197.9899,661.05222 197.9899,658.50371 C 197.9899,656.44631 197.63635,655.49039 197.63635,653.55396 C 197.63635,652.09082 196.39958,650.37333 195.86858,649.31132 C 195.26491,648.10398 194.572,646.87544 193.74726,645.77578 C 192.90663,644.65495 192.32992,643.28843 191.97949,641.8867 C 191.56951,640.24679 193.48947,638.57703 194.45436,637.2905 C 195.75482,635.55656 196.08552,635.00851 196.57569,633.04786 C 197.04085,631.18719 196.97448,629.95637 196.22213,628.45167 C 195.51717,627.04174 192.82302,625.19523 191.97949,624.56258 C 190.69607,623.60001 190.4472,622.67673 189.50462,621.73415 C 188.2933,620.52284 188.16184,619.19147 187.73685,617.49151 C 187.40937,616.18158 187.3833,614.33385 187.3833,612.54176 C 187.3833,611.63109 190.43116,610.43264 190.91883,610.06689 C 192.19877,609.10694 193.82142,608.43882 194.80792,607.94557 C 195.88025,607.4094 196.67333,605.08011 196.92924,604.05648 C 197.32176,602.48638 197.68227,601.41176 197.28279,599.81384 C 196.81796,597.95453 196.51233,597.21226 195.86858,595.92476 C 195.19224,594.57209 195.51503,592.2348 195.51503,590.62145 C 195.51503,589.24074 196.66465,587.70406 197.28279,587.08592 C 198.50837,585.86034 198.34345,584.53766 198.34345,582.48973 C 198.34345,581.29629 198.69701,579.24486 198.69701,577.53998 C 198.69701,577.3622 198.41541,576.13201 198.34345,575.77221 C 198.34345,575.13756 197.87205,574.5937 197.63635,574.00444 C 197.23933,573.0119 195.02879,572.34711 194.10081,571.88312 C 192.6385,571.15197 192.23031,570.41754 190.91883,569.7618 C 189.30779,568.95628 188.3441,568.70114 186.32264,568.70114 C 183.37738,568.70114 181.93066,567.51004 179.60512,566.57982 C 173.27362,564.04722 166.75316,558.87815 160.15969,556.68033 C 158.77675,556.21935 160.56843,553.74153 161.22035,552.43769 C 161.8977,551.08297 162.30127,548.85148 162.98811,547.13439 C 163.40164,546.10057 161.0146,542.61742 160.15969,541.47753 C 158.94275,539.85495 158.82652,537.91263 158.39192,536.17423 C 157.87671,534.11339 158.58312,531.54919 159.09903,530.51738 C 159.97338,528.76867 160.9635,528.29935 161.92745,527.3354 C 163.04396,526.2189 164.17312,525.79683 165.46299,524.50697 C 166.30964,523.66031 165.68224,520.78779 165.46299,519.91078 C 165.08315,518.39143 164.01073,517.71338 163.34167,516.37524 C 162.59307,514.87805 160.32805,513.14276 159.45258,512.48615 C 157.65178,511.13556 154.56055,510.1141 152.73506,509.65773 C 150.38512,509.07024 148.8504,508.17457 146.3711,507.18285 C 144.74244,506.53139 145.03827,505.52382 143.18912,505.06153 C 140.16926,504.30657 139.37527,503.369 137.88582,501.87955 C 136.89171,500.88544 136.02424,499.66442 135.0574,498.69757 C 133.56689,497.20706 132.93607,495.54691 132.93607,493.39427 C 132.93607,492.37266 134.66754,490.28489 135.0574,489.50518 C 136.00166,487.61666 136.11806,484.72576 136.11806,482.43412 C 136.11806,481.61754 134.3877,479.18417 133.64318,478.19148 C 132.77689,477.03643 132.12927,475.26335 131.16831,474.30239 C 129.88466,473.01874 129.26021,470.83975 128.69343,469.70619 C 127.80693,467.93318 126.97036,467.05654 126.57211,465.46355 C 126.27603,464.27921 124.64571,463.18359 123.74369,462.28157 C 122.19578,460.73366 120.56436,460.33836 118.79394,459.45315 C 116.56144,458.3369 114.0173,457.40107 112.07642,456.62472 C 110.99535,456.19229 110.76674,453.90082 109.9551,453.08919 C 108.43174,451.56582 104.72186,451.42015 103.59114,450.96786 C 102.32845,450.46279 103.63552,446.92419 101.82338,446.01812 C 100.08845,445.15066 99.410986,444.00081 97.580736,443.54324 C 96.244978,443.2093 94.848891,441.16495 94.045202,440.36126 C 92.620438,438.9365 91.621251,437.95429 90.509668,436.47218 C 89.335847,434.90708 89.399741,433.84082 89.802561,432.22954 C 90.16234,430.79042 91.522817,429.80217 92.277435,429.04755 C 93.750098,427.57489 93.91624,427.44208 94.398755,425.51202 C 94.727415,424.19738 94.85818,421.90655 95.105862,420.91583 C 95.616573,418.87298 96.039986,417.53288 96.520076,415.61253 C 96.905507,414.0708 96.520076,411.9078 96.520076,410.30922 C 96.520076,408.87122 95.237726,406.83166 94.398755,405.71303 C 93.488658,404.49957 93.198641,403.3128 92.630988,402.1775 C 92.19831,401.31214 89.512257,400.15219 88.388348,399.70262 C 86.739882,399.04324 85.410906,397.86035 84.145707,397.22775 C 82.585336,396.44756 81.902759,395.57028 81.31728,394.39932 C 80.733127,393.23102 82.590616,392.41888 83.4386,391.5709 C 84.51892,390.49058 83.444161,388.04648 83.085047,387.32825 C 82.273705,385.70557 79.928818,384.06276 79.19596,383.08561 C 78.347863,381.95482 76.803494,381.30987 76.013979,380.25719 C 75.00601,378.91323 74.953319,378.14702 74.953319,376.01455 C 74.953319,374.03705 75.526977,372.65925 76.013979,370.71125 C 76.47648,368.86124 76.933026,367.81249 77.781746,366.11505 C 78.416837,364.84487 78.056028,362.61598 77.781746,361.51886 C 77.284095,359.52825 76.652293,358.62164 75.660426,357.62977 C 74.863024,356.83237 74.610422,354.84397 74.246212,353.38713 C 73.53455,350.54048 73.372416,350.42864 71.064232,349.85159 C 69.885234,349.55685 69.186724,347.64486 68.942911,346.66961 C 68.717773,345.76906 67.314751,344.6879 66.821591,344.19474 C 66.503378,342.92189 62.524781,345.53411 62.225397,345.60895 C 60.809755,345.96286 59.867065,347.31845 58.336309,348.08383 C 56.772419,348.86577 55.77303,350.07257 54.093669,350.91226 C 52.514394,351.70189 50.566774,349.85591 49.851028,349.49804 C 48.758271,348.95166 47.365328,347.71945 46.669048,347.02317 C 45.663949,346.01807 42.981795,346.31606 41.365747,346.31606 C 39.296061,346.31606 38.759475,347.63952 37.830213,349.49804 C 37.076233,351.006 36.851708,351.99785 36.415999,353.74068 C 36.050546,355.2025 34.18143,357.27276 33.234019,357.98332 C 31.947154,358.94847 30.926883,359.93691 30.052038,360.81175 C 28.862403,362.00139 28.620452,363.35611 28.284271,364.70084 C 28.033576,365.70362 26.679155,367.36661 25.809398,368.23637 C 24.466123,369.57965 24.354003,370.75243 23.334524,371.77191 C 21.995377,373.11105 21.80524,373.03811 19.79899,373.53967 C 17.459776,374.12448 17.352245,374.54408 16.263456,376.72165 C 15.634602,377.97936 14.519681,378.92883 13.788582,379.90363 C 12.699255,381.35607 11.627001,382.41877 10.606602,383.43917 C 9.1779309,384.86784 9.4940516,385.86215 10.606602,386.9747 C 11.86318,388.23128 12.318541,388.27726 13.081475,389.80313 C 14.059351,391.75888 13.832896,391.96876 15.556349,393.69222 C 16.824639,394.96051 17.324116,394.90788 17.324116,397.22775 C 17.324116,398.69723 15.061358,399.72031 14.142136,400.40973 C 12.983325,401.27884 11.97897,402.19842 10.606602,402.8846 C 9.2008452,403.58748 8.1234373,404.65444 6.7175144,405.00592 C 5.0167504,405.43111 3.549469,405.71651 2.1213203,405.35948 C 0.45600741,404.94315 -0.58181448,404.41853 -2.4748737,403.94526 C -3.9462785,403.57741 -5.0202648,402.60181 -6.7175144,402.1775 C -9.3192256,401.52707 -13.950071,403.67245 -15.909903,404.65237 C -16.797694,405.09627 -19.609968,403.50944 -20.152543,403.23816 C -22.188864,402.22 -23.225016,401.76293 -25.809398,401.11684 C -27.306846,400.74247 -26.516504,398.34512 -26.516504,396.52064 C -26.516504,395.49784 -28.330953,394.56615 -28.637825,393.33866 C -29.023256,391.79694 -28.637825,389.63394 -28.637825,388.03536 C -28.637825,386.65461 -30.636338,384.62263 -31.819805,383.43917 C -32.81091,382.44806 -33.55229,381.24704 -34.294679,380.25719 C -35.343165,378.8592 -35.561582,377.8928 -37.123106,376.72165 C -39.252801,375.12438 -39.874726,374.04684 -40.65864,372.47901 C -41.50189,370.79251 -41.801556,369.48607 -42.426407,368.23637 C -43.058041,366.9731 -43.487067,365.63613 -43.487067,363.64018 C -43.487067,362.68594 -41.94433,360.65121 -41.7193,359.75109 C -41.365645,358.33647 -40.65864,357.22213 -40.65864,355.1549 C -40.65864,353.52964 -41.7193,352.93066 -41.7193,350.91226 C -41.7193,349.14449 -41.7193,347.37672 -41.7193,345.60895 C -41.7193,344.27532 -42.787951,342.05744 -43.487067,340.65921 C -44.114282,339.40478 -46.173647,337.61907 -47.022601,336.77012 C -48.409044,335.38368 -48.436815,333.83634 -48.436815,331.82037 C -48.436815,329.9322 -48.752488,328.91619 -48.083261,327.57773 C -47.405842,326.22289 -47.022601,324.85285 -47.022601,322.98154 C -47.022601,321.76271 -49.236118,320.9909 -50.204582,320.50666 C -51.683825,319.76704 -53.78822,319.0684 -55.154329,318.38534 C -56.324075,317.80047 -57.287607,316.08127 -58.336309,315.55692 C -59.53084,314.95965 -60.865533,313.38125 -61.51829,312.72849 C -62.759814,311.48696 -63.266492,310.33187 -63.63961,308.8394 C -64.009739,307.35889 -64.346717,306.11485 -64.346717,304.24321 C -64.346717,302.41409 -64.494317,301.70998 -63.63961,300.00057 C -62.819574,298.36049 -62.101424,297.04817 -61.164737,296.11148 C -60.19183,295.13857 -60.185615,293.71814 -59.043416,292.57595 C -57.963213,291.49574 -57.125477,291.01156 -56.214989,290.10107 C -55.109703,288.99579 -57.039896,287.5084 -57.629203,286.91909 C -58.580152,285.96814 -58.896105,284.23798 -59.750523,283.38356 C -60.722785,282.4113 -61.521214,281.60994 -62.225397,280.20158 C -62.318847,280.01468 -62.878305,279.54867 -62.932504,279.49447 C -64.414791,276.5299 -67.495785,273.50052 -69.650018,272.4234 C -70.923447,271.78669 -72.073593,269.69757 -72.478445,268.88787 C -73.156669,267.53142 -73.705637,266.43348 -74.246212,265.35233 C -75.189999,263.46476 -75.580649,263.31079 -76.721086,262.17035 C -78.171259,260.72018 -79.065826,260.17917 -80.610173,258.63482 C -81.883066,257.36193 -81.53033,256.58375 -83.085047,255.80639 C -85.297636,254.7001 -86.267027,254.45496 -86.267027,251.91731 C -86.267027,250.67233 -85.559921,248.64208 -85.559921,246.96756 C -85.559921,244.76179 -85.879874,244.23592 -87.681241,243.78558 C -91.42176,242.85045 -91.325819,244.41006 -92.277435,240.6036 C -92.710497,238.87135 -93.963611,238.2919 -94.752309,236.71451 C -95.167946,235.88323 -97.012767,234.80761 -97.580736,234.23964 C -98.674108,233.14626 -98.866244,232.53622 -100.40916,231.76476 C -101.74101,231.09884 -103.77694,231.41121 -105.35891,231.41121 C -108.08515,231.41121 -108.34724,231.25131 -109.60155,229.997 C -110.59931,228.99924 -112.13685,228.62585 -113.13709,227.87568 C -114.24734,227.04298 -116.38537,226.60509 -117.37973,226.10791 C -119.70012,224.94771 -119.8546,225.69963 -119.8546,222.57237 C -119.8546,220.26876 -120.53795,220.12126 -121.62237,219.03684 C -122.85652,217.80269 -123.49614,217.21607 -125.51145,216.20841 C -126.93973,215.49428 -127.26582,214.49424 -127.63277,213.02643 C -128.03424,211.42055 -128.65871,210.37165 -129.04699,208.43024 C -129.4195,206.56768 -129.76704,205.65358 -129.40054,204.1876 C -129.18153,203.31156 -126.40325,201.98184 -125.86501,201.71272 C -124.51772,201.03908 -123.96933,200.0427 -123.39013,198.8843 C -122.43199,196.968 -123.60876,196.1908 -124.45079,195.34876 C -125.531,194.26856 -125.66163,193.07727 -126.57211,192.16678 C -127.73441,191.00448 -128.47666,190.80676 -130.10765,190.39902 C -132.86382,189.70997 -133.66207,187.9997 -134.35029,190.75257 C -134.93322,193.0843 -136.67874,190.89899 -137.17872,190.39902 C -138.30703,189.2707 -138.91032,188.7759 -139.30004,187.21704 C -139.59734,186.02782 -140.48327,186.0338 -141.0678,185.44927 C -141.58645,183.37466 -143.58801,182.60951 -144.95689,182.26729 C -145.33832,182.17193 -145.2207,178.38364 -145.31044,178.02465 C -145.78381,176.1312 -148.44171,175.39836 -149.55308,174.84267 C -151.12316,174.05763 -151.73217,173.31293 -152.38151,172.01424 C -153.06912,170.63903 -153.46552,169.09243 -153.79573,167.7716 C -154.20586,166.13105 -155.30707,166.03881 -154.85639,164.23606 C -154.85022,164.21139 -151.5745,162.36839 -151.32085,162.11474 C -150.58503,161.37893 -150.49653,161.40764 -149.19953,161.40764 z" />
  </g>
</svg>
