<?xml version="1.0" encoding="UTF-8" standalone="no"?>
<!-- Created with Inkscape (http://www.inkscape.org/) -->

<svg
   width="194.49908mm"
   height="126.48703mm"
   viewBox="0 0 194.49908 126.48703"
   version="1.1"
   id="svg1"
   inkscape:version="1.3.2 (091e20e, 2023-11-25, custom)"
   sodipodi:docname="bpatttop2.svg"
   xmlns:inkscape="http://www.inkscape.org/namespaces/inkscape"
   xmlns:sodipodi="http://sodipodi.sourceforge.net/DTD/sodipodi-0.dtd"
   xmlns="http://www.w3.org/2000/svg"
   xmlns:svg="http://www.w3.org/2000/svg">
  <sodipodi:namedview
     id="namedview1"
     pagecolor="#ffffff"
     bordercolor="#000000"
     borderopacity="0.25"
     inkscape:showpageshadow="2"
     inkscape:pageopacity="0.0"
     inkscape:pagecheckerboard="0"
     inkscape:deskcolor="#d1d1d1"
     inkscape:document-units="mm"
     inkscape:zoom="0.73890575"
     inkscape:cx="-198.26615"
     inkscape:cy="268.64048"
     inkscape:window-width="2560"
     inkscape:window-height="1369"
     inkscape:window-x="-8"
     inkscape:window-y="-8"
     inkscape:window-maximized="1"
     inkscape:current-layer="layer1" />
  <defs
     id="defs1">
    <clipPath
       clipPathUnits="userSpaceOnUse"
       id="clipPath72">
      <path
         d="M 29.889,33.805 H 581.225 V 758.196 H 29.889 Z"
         transform="translate(-111.43071,-198.59181)"
         id="path72" />
    </clipPath>
    <clipPath
       clipPathUnits="userSpaceOnUse"
       id="clipPath70">
      <path
         d="M 29.889,33.805 H 581.225 V 758.196 H 29.889 Z"
         transform="translate(-114.0532,-219.35451)"
         id="path70" />
    </clipPath>
    <clipPath
       clipPathUnits="userSpaceOnUse"
       id="clipPath48">
      <path
         d="M 29.889,33.805 H 581.225 V 758.196 H 29.889 Z"
         transform="translate(-360.81541,-28.630876)"
         id="path48" />
    </clipPath>
    <clipPath
       clipPathUnits="userSpaceOnUse"
       id="clipPath98">
      <path
         d="M 29.889,33.805 H 581.225 V 758.196 H 29.889 Z"
         transform="translate(-233.00151,-115.59381)"
         id="path98" />
    </clipPath>
    <clipPath
       clipPathUnits="userSpaceOnUse"
       id="clipPath100">
      <path
         d="M 29.889,33.805 H 581.225 V 758.196 H 29.889 Z"
         transform="translate(-349.64841,-89.6113)"
         id="path100" />
    </clipPath>
    <clipPath
       clipPathUnits="userSpaceOnUse"
       id="clipPath62">
      <path
         d="M 29.889,33.805 H 581.225 V 758.196 H 29.889 Z"
         transform="translate(-320.37301,-29.976601)"
         id="path62" />
    </clipPath>
    <clipPath
       clipPathUnits="userSpaceOnUse"
       id="clipPath64">
      <path
         d="M 29.889,33.805 H 581.225 V 758.196 H 29.889 Z"
         transform="translate(-302.73101,-21.470701)"
         id="path64" />
    </clipPath>
    <clipPath
       clipPathUnits="userSpaceOnUse"
       id="clipPath66">
      <path
         d="M 29.889,33.805 H 581.225 V 758.196 H 29.889 Z"
         transform="translate(-269.23831,-22.142626)"
         id="path66" />
    </clipPath>
    <clipPath
       clipPathUnits="userSpaceOnUse"
       id="clipPath68">
      <path
         d="M 29.889,33.805 H 581.225 V 758.196 H 29.889 Z"
         transform="translate(-58.121101,-21.582001)"
         id="path68" />
    </clipPath>
    <clipPath
       clipPathUnits="userSpaceOnUse"
       id="clipPath60">
      <path
         d="M 29.889,33.805 H 581.225 V 758.196 H 29.889 Z"
         transform="translate(-542.09471,-723.40042)"
         id="path60" />
    </clipPath>
    <clipPath
       clipPathUnits="userSpaceOnUse"
       id="clipPath58">
      <path
         d="M 29.889,33.805 H 581.225 V 758.196 H 29.889 Z"
         transform="translate(-521.19731,-707.58452)"
         id="path58" />
    </clipPath>
    <clipPath
       clipPathUnits="userSpaceOnUse"
       id="clipPath56">
      <path
         d="M 29.889,33.805 H 581.225 V 758.196 H 29.889 Z"
         transform="translate(-507.92092,-680.33351)"
         id="path56" />
    </clipPath>
    <clipPath
       clipPathUnits="userSpaceOnUse"
       id="clipPath54">
      <path
         d="M 29.889,33.805 H 581.225 V 758.196 H 29.889 Z"
         transform="translate(-459.01661,-657.41162)"
         id="path54" />
    </clipPath>
    <clipPath
       clipPathUnits="userSpaceOnUse"
       id="clipPath96">
      <path
         d="M 29.889,33.805 H 581.225 V 758.196 H 29.889 Z"
         transform="translate(-248.42041,-743.43312)"
         id="path96" />
    </clipPath>
    <clipPath
       clipPathUnits="userSpaceOnUse"
       id="clipPath46">
      <path
         d="M 29.889,33.805 H 581.225 V 758.196 H 29.889 Z"
         transform="translate(-525.98341,-619.14701)"
         id="path46" />
    </clipPath>
    <clipPath
       clipPathUnits="userSpaceOnUse"
       id="clipPath44">
      <path
         d="M 29.889,33.805 H 581.225 V 758.196 H 29.889 Z"
         transform="translate(-518.66311,-606.67972)"
         id="path44" />
    </clipPath>
    <clipPath
       clipPathUnits="userSpaceOnUse"
       id="clipPath42">
      <path
         d="M 29.889,33.805 H 581.225 V 758.196 H 29.889 Z"
         transform="translate(-548.29882,-599.07622)"
         id="path42" />
    </clipPath>
    <clipPath
       clipPathUnits="userSpaceOnUse"
       id="clipPath40">
      <path
         d="M 29.889,33.805 H 581.225 V 758.196 H 29.889 Z"
         transform="translate(-590.00002,-586.27102)"
         id="path40" />
    </clipPath>
    <clipPath
       clipPathUnits="userSpaceOnUse"
       id="clipPath24">
      <path
         d="M 29.889,33.805 H 581.225 V 758.196 H 29.889 Z"
         transform="translate(-592.87891,-106.0117)"
         id="path24" />
    </clipPath>
    <clipPath
       clipPathUnits="userSpaceOnUse"
       id="clipPath26">
      <path
         d="M 29.889,33.805 H 581.225 V 758.196 H 29.889 Z"
         transform="translate(-588.51661,-71.742204)"
         id="path26" />
    </clipPath>
    <clipPath
       clipPathUnits="userSpaceOnUse"
       id="clipPath28">
      <path
         d="M 29.889,33.805 H 581.225 V 758.196 H 29.889 Z"
         transform="translate(-584.27831,-47.701201)"
         id="path28" />
    </clipPath>
    <clipPath
       clipPathUnits="userSpaceOnUse"
       id="clipPath30">
      <path
         d="M 29.889,33.805 H 581.225 V 758.196 H 29.889 Z"
         transform="translate(-584.55761,-38.587876)"
         id="path30" />
    </clipPath>
    <clipPath
       clipPathUnits="userSpaceOnUse"
       id="clipPath32">
      <path
         d="M 29.889,33.805 H 581.225 V 758.196 H 29.889 Z"
         transform="translate(-507.19921,-25.233376)"
         id="path32" />
    </clipPath>
    <clipPath
       clipPathUnits="userSpaceOnUse"
       id="clipPath82">
      <path
         d="M 29.889,33.805 H 581.225 V 758.196 H 29.889 Z"
         transform="translate(-586.86911,-136.0869)"
         id="path82" />
    </clipPath>
    <clipPath
       clipPathUnits="userSpaceOnUse"
       id="clipPath84">
      <path
         d="M 29.889,33.805 H 581.225 V 758.196 H 29.889 Z"
         transform="translate(-591.72751,-148.07421)"
         id="path84" />
    </clipPath>
    <clipPath
       clipPathUnits="userSpaceOnUse"
       id="clipPath86">
      <path
         d="M 29.889,33.805 H 581.225 V 758.196 H 29.889 Z"
         transform="translate(-529.47851,-325.66411)"
         id="path86" />
    </clipPath>
    <clipPath
       clipPathUnits="userSpaceOnUse"
       id="clipPath90">
      <path
         d="M 29.889,33.805 H 581.225 V 758.196 H 29.889 Z"
         transform="translate(-535.77641,-290.28711)"
         id="path90" />
    </clipPath>
    <clipPath
       clipPathUnits="userSpaceOnUse"
       id="clipPath92">
      <path
         d="M 29.889,33.805 H 581.225 V 758.196 H 29.889 Z"
         transform="translate(-519.14842,-278.0068)"
         id="path92" />
    </clipPath>
    <clipPath
       clipPathUnits="userSpaceOnUse"
       id="clipPath88">
      <path
         d="M 29.889,33.805 H 581.225 V 758.196 H 29.889 Z"
         transform="translate(-532.96091,-313.67091)"
         id="path88" />
    </clipPath>
    <clipPath
       clipPathUnits="userSpaceOnUse"
       id="clipPath48-7">
      <path
         d="M 29.889,33.805 H 581.225 V 758.196 H 29.889 Z"
         transform="translate(-360.81541,-28.630876)"
         id="path48-7" />
    </clipPath>
    <clipPath
       clipPathUnits="userSpaceOnUse"
       id="clipPath70-0">
      <path
         d="M 29.889,33.805 H 581.225 V 758.196 H 29.889 Z"
         transform="translate(-114.0532,-219.35451)"
         id="path70-7" />
    </clipPath>
    <clipPath
       clipPathUnits="userSpaceOnUse"
       id="clipPath72-2">
      <path
         d="M 29.889,33.805 H 581.225 V 758.196 H 29.889 Z"
         transform="translate(-111.43071,-198.59181)"
         id="path72-0" />
    </clipPath>
    <clipPath
       clipPathUnits="userSpaceOnUse"
       id="clipPath62-2">
      <path
         d="M 29.889,33.805 H 581.225 V 758.196 H 29.889 Z"
         transform="translate(-320.37301,-29.976601)"
         id="path62-3" />
    </clipPath>
    <clipPath
       clipPathUnits="userSpaceOnUse"
       id="clipPath64-0">
      <path
         d="M 29.889,33.805 H 581.225 V 758.196 H 29.889 Z"
         transform="translate(-302.73101,-21.470701)"
         id="path64-9" />
    </clipPath>
    <clipPath
       clipPathUnits="userSpaceOnUse"
       id="clipPath2">
      <path
         d="M 29.889,33.805 H 581.225 V 758.196 H 29.889 Z"
         transform="translate(-330.70611,-546.99121)"
         id="path2" />
    </clipPath>
    <clipPath
       clipPathUnits="userSpaceOnUse"
       id="clipPath4">
      <path
         d="M 29.889,33.805 H 581.225 V 758.196 H 29.889 Z"
         transform="translate(-313.55861,-527.27251)"
         id="path4" />
    </clipPath>
    <clipPath
       clipPathUnits="userSpaceOnUse"
       id="clipPath6">
      <path
         d="M 29.889,33.805 H 581.225 V 758.196 H 29.889 Z"
         transform="translate(-321.83501,-509.22022)"
         id="path6" />
    </clipPath>
    <clipPath
       clipPathUnits="userSpaceOnUse"
       id="clipPath8">
      <path
         d="M 29.889,33.805 H 581.225 V 758.196 H 29.889 Z"
         transform="translate(-325.13281,-491.53171)"
         id="path8" />
    </clipPath>
    <clipPath
       clipPathUnits="userSpaceOnUse"
       id="clipPath10">
      <path
         d="M 29.889,33.805 H 581.225 V 758.196 H 29.889 Z"
         transform="translate(-321.36621,-481.30961)"
         id="path10" />
    </clipPath>
    <clipPath
       clipPathUnits="userSpaceOnUse"
       id="clipPath12">
      <path
         d="M 29.889,33.805 H 581.225 V 758.196 H 29.889 Z"
         transform="translate(-328.84281,-460.25151)"
         id="path12" />
    </clipPath>
    <clipPath
       clipPathUnits="userSpaceOnUse"
       id="clipPath14">
      <path
         d="M 29.889,33.805 H 581.225 V 758.196 H 29.889 Z"
         transform="translate(-319.16991,-444.55221)"
         id="path14" />
    </clipPath>
  </defs>
  <g
     inkscape:label="Layer 1"
     inkscape:groupmode="layer"
     id="layer1"
     transform="translate(-8.1829533,11.693185)">
    <path
       id="path23"
       d="m 0,0 c -15.731,-0.002 -50.727,17.801 -59.441,26.057 -7.634,7.229 -16.239,14.74 -26.307,22.963 -10.603,8.66 -21.676,17.126 -32.384,25.312 -5.246,4.011 -10.671,8.158 -15.977,12.28 -4.1,3.186 -8.212,6.74 -12.189,10.176 -10.016,8.656 -20.374,17.608 -32.199,22.296 -14.292,5.667 -30.512,2.985 -45.899,-0.247 -8.997,-1.89 -17.622,-5.726 -25.962,-9.435 -8.964,-3.986 -18.233,-8.108 -28.219,-9.997 -3.165,-0.598 -6.34,-0.873 -9.5,-0.873 -21.577,-0.002 -42.679,12.784 -58.64,22.454 -15.183,9.201 -27.865,19.878 -37.693,31.736 -3.451,4.163 -7.021,8.225 -10.473,12.154 -10.739,12.222 -20.883,23.766 -28.398,38.775 -10.159,20.288 -16.959,42.084 -23.054,62.671 -0.269,0.908 -0.531,1.998 -0.81,3.153 -2.004,8.328 -3.945,12.968 -7.952,12.035 -3.893,-0.907 -7.49,-6.475 -10.116,-10.539 -0.49,-0.758 -0.95,-1.47 -1.38,-2.104 -1.687,-2.49 -3.344,-5.103 -4.948,-7.631 -4.015,-6.333 -8.167,-12.88 -13.412,-18.53 -14.296,-15.398 -20.948,-21.691 -42.282,-22.767 -18.757,-0.947 -32.338,-2.227 -49.536,-11.046 l -2.135,4.164 c 18.03,9.247 32.072,10.58 51.435,11.558 19.302,0.973 25.117,6.227 39.087,21.277 4.953,5.334 8.988,11.697 12.89,17.85 1.622,2.558 3.299,5.202 5.026,7.751 0.412,0.608 0.853,1.291 1.323,2.018 3.06,4.735 7.25,11.22 12.985,12.557 9.316,2.181 12.08,-9.323 13.567,-15.498 0.263,-1.093 0.511,-2.127 0.746,-2.92 6.035,-20.384 12.764,-41.957 22.751,-61.903 7.245,-14.47 17.195,-25.793 27.729,-37.781 3.474,-3.954 7.067,-8.042 10.561,-12.258 9.494,-11.454 21.779,-21.789 36.514,-30.718 17.652,-10.694 41.824,-25.345 64.846,-20.985 9.45,1.787 18.467,5.797 27.185,9.674 8.565,3.808 17.42,7.747 26.902,9.738 16.085,3.38 33.088,6.164 48.587,0.019 12.561,-4.981 23.223,-14.196 33.535,-23.107 4.112,-3.554 7.996,-6.91 11.999,-10.019 5.293,-4.112 10.71,-8.254 15.949,-12.259 10.737,-8.21 21.841,-16.698 32.502,-25.406 C -72.63,44.35 -63.94,36.764 -56.223,29.455 -47.111,20.824 -12.496,4.079 0.666,4.695 L 0.883,0.02 C 0.597,0.006 0.301,0 0,0"
       style="fill:#00896a;fill-opacity:1;fill-rule:nonzero;stroke:none"
       transform="matrix(0.35277776,0,0,-0.35277776,206.79328,89.320921)"
       clip-path="url(#clipPath24)" />
    <path
       id="path25"
       d="m 0,0 c -11.654,7.241 -24.715,15.261 -38.542,23.751 -31.976,19.635 -68.217,41.889 -95.4,59.691 -4.42,2.896 -8.764,5.974 -13.363,9.233 -16.299,11.552 -33.154,23.496 -52.408,26.063 -15.647,2.085 -31.136,-2.215 -46.115,-6.374 -9.707,-2.694 -19.743,-5.481 -29.803,-6.546 -24.288,-2.572 -46.886,3.237 -65.361,16.791 -3.048,2.237 -6.127,4.444 -9.21,6.652 -15.078,10.805 -30.671,21.979 -42.65,36.808 -9.556,11.829 -16.467,24.498 -20.542,37.655 -2.507,8.099 -6.365,15.854 -10.095,23.353 -3.347,6.731 -6.809,13.69 -9.34,20.957 -0.461,1.322 -0.907,2.7 -1.362,4.104 -3.153,9.733 -6.413,19.799 -17.054,21.601 -11.716,1.989 -22.589,-7.468 -31.327,-15.063 l -1.516,-1.317 c -15.504,-13.403 -33.426,-16.512 -50.759,-19.519 -13.219,-2.294 -26.888,-4.666 -39.783,-11.52 l -1.242,2.336 c 13.268,7.052 27.149,9.46 40.574,11.789 17.758,3.081 34.531,5.992 49.48,18.914 l 1.511,1.312 c 9.158,7.962 20.555,17.869 33.504,15.676 12.22,-2.071 15.89,-13.4 19.128,-23.395 0.448,-1.384 0.888,-2.743 1.343,-4.049 2.477,-7.108 5.9,-13.992 9.211,-20.648 3.777,-7.594 7.683,-15.445 10.254,-23.748 3.975,-12.836 10.728,-25.209 20.072,-36.776 11.754,-14.55 27.198,-25.618 42.134,-36.321 3.09,-2.214 6.178,-4.427 9.234,-6.668 17.935,-13.159 39.898,-18.794 63.518,-16.295 9.842,1.042 19.77,3.799 29.373,6.465 15.236,4.231 30.989,8.604 47.173,6.447 19.9,-2.653 37.026,-14.79 53.588,-26.526 4.578,-3.245 8.903,-6.31 13.282,-9.178 27.151,-17.782 63.375,-40.025 95.335,-59.65 C -23.328,17.513 -10.265,9.49 1.396,2.246 Z"
       style="fill:#00896a;fill-opacity:1;fill-rule:nonzero;stroke:none"
       transform="matrix(0.35277776,0,0,-0.35277776,205.25436,101.41044)"
       clip-path="url(#clipPath26)" />
    <path
       id="path27"
       d="m 0,0 c -4.569,7.417 -14.407,10.457 -23.922,13.397 -4.846,1.498 -9.423,2.912 -13.166,4.86 -8.292,4.313 -15.593,10.318 -22.652,16.125 -6.222,5.117 -12.655,10.409 -19.72,14.496 -8.611,4.981 -17.893,9.114 -26.868,13.111 -7.56,3.367 -15.376,6.849 -22.779,10.827 -9.615,5.168 -19.06,11.572 -28.194,17.764 -12.981,8.802 -26.404,17.902 -40.636,23.696 -16.947,6.901 -36.451,6.746 -55.317,6.595 -8.305,-0.065 -16.894,-0.133 -24.957,0.432 -29.41,2.068 -52.364,9.575 -70.175,22.952 -37.019,27.803 -62.824,52.835 -77.067,91.667 -1.282,3.497 -2.463,7.623 -3.712,11.991 -3.467,12.124 -7.398,25.866 -15.291,32.649 -9.929,8.527 -21.426,0.02 -30.664,-6.818 -1.248,-0.924 -2.451,-1.815 -3.6,-2.626 -11.015,-7.779 -18.873,-11.788 -30.028,-15.316 -10.961,-3.468 -24.761,-8.356 -34.254,-15.441 -11.204,-8.363 -20.517,-18.165 -30.197,-31.782 l -0.954,0.678 c 9.754,13.721 19.145,23.602 30.45,32.042 9.634,7.189 23.553,12.123 34.602,15.618 11.027,3.488 18.801,7.455 29.706,15.156 1.143,0.807 2.339,1.693 3.579,2.612 9.571,7.085 21.484,15.906 32.123,6.764 8.159,-7.011 12.14,-20.931 15.653,-33.215 1.244,-4.346 2.418,-8.452 3.686,-11.91 14.144,-38.561 39.823,-63.46 76.671,-91.134 17.624,-13.236 40.376,-20.669 69.554,-22.719 8.021,-0.565 16.586,-0.495 24.866,-0.429 18.974,0.147 38.604,0.308 55.767,-6.682 14.347,-5.84 27.821,-14.976 40.851,-23.811 9.111,-6.176 18.531,-12.563 28.092,-17.701 7.365,-3.959 15.161,-7.431 22.701,-10.789 9.003,-4.01 18.313,-8.156 26.978,-13.167 7.148,-4.136 13.619,-9.458 19.877,-14.606 7.014,-5.769 14.266,-11.734 22.449,-15.991 3.65,-1.899 8.178,-3.298 12.971,-4.779 9.722,-3.004 19.773,-6.111 24.573,-13.903 z"
       style="fill:#00896a;fill-opacity:1;fill-rule:nonzero;stroke:none"
       transform="matrix(0.35277776,0,0,-0.35277776,203.75918,109.89157)"
       clip-path="url(#clipPath28)" />
    <path
       id="path29"
       d="m 0,0 c -3.176,1.279 -6.366,2.538 -9.561,3.798 -16.293,6.426 -33.14,13.07 -48.173,22.658 -5.616,3.581 -11.03,7.498 -16.266,11.286 -10.642,7.699 -21.645,15.659 -34.45,20.791 -4.244,1.7 -8.648,3.365 -12.905,4.975 -19.976,7.552 -40.632,15.36 -56.126,30.755 -2.261,2.246 -4.302,4.784 -6.277,7.239 -3.367,4.186 -6.849,8.516 -11.469,11.429 -12.382,7.81 -29.337,6.608 -44.294,4.4 -29.394,-4.336 -61.442,-1.044 -95.243,9.785 -15.532,4.978 -28.818,14.459 -43.079,30.744 -3.941,4.5 -8.199,9.002 -12.318,13.357 -10.369,10.963 -21.092,22.3 -28.578,35.383 -10.467,18.296 -18.961,38.736 -23.304,56.078 -0.208,0.833 -0.415,1.718 -0.63,2.639 -1.449,6.217 -3.253,13.954 -8.41,17.291 -7.504,4.85 -18.084,-1.523 -25.39,-6.739 -15.825,-11.295 -33.761,-24.098 -47.611,-40.641 -11.834,-14.136 -21.249,-30.454 -30.355,-46.234 -1.306,-2.263 -2.61,-4.523 -3.919,-6.774 -2.396,-4.118 -4.109,-7.818 -5.923,-11.735 -3.227,-6.972 -6.566,-14.181 -14.169,-24.697 l -0.948,0.686 c 7.537,10.423 10.851,17.581 14.056,24.503 1.825,3.942 3.549,7.666 5.972,11.831 1.309,2.251 2.613,4.509 3.917,6.771 9.131,15.823 18.572,32.186 30.472,46.4 13.945,16.659 31.946,29.507 47.829,40.843 4.831,3.449 17.667,12.611 26.705,6.769 5.553,-3.594 7.417,-11.586 8.914,-18.008 0.213,-0.914 0.418,-1.794 0.625,-2.621 4.318,-17.242 12.769,-37.573 23.184,-55.78 7.417,-12.963 18.091,-24.248 28.413,-35.161 4.126,-4.363 8.393,-8.874 12.348,-13.389 14.113,-16.116 27.238,-25.492 42.556,-30.401 33.629,-10.776 65.494,-14.053 94.717,-9.742 15.166,2.239 32.382,3.447 45.088,-4.568 4.785,-3.018 8.329,-7.424 11.755,-11.686 1.955,-2.429 3.976,-4.942 6.19,-7.142 15.318,-15.219 35.854,-22.983 55.716,-30.49 4.263,-1.612 8.671,-3.279 12.926,-4.984 12.94,-5.184 24.002,-13.188 34.701,-20.929 5.222,-3.778 10.623,-7.684 16.209,-11.248 14.938,-9.526 31.732,-16.15 47.973,-22.555 3.197,-1.262 6.391,-2.522 9.569,-3.801 z"
       style="fill:#00896a;fill-opacity:1;fill-rule:nonzero;stroke:none"
       transform="matrix(0.35277776,0,0,-0.35277776,203.85771,113.10655)"
       clip-path="url(#clipPath30)" />
    <path
       id="path31"
       d="m 0,0 c -11.959,17.462 -34.952,26.511 -55.239,34.495 -2.237,0.88 -4.428,1.742 -6.551,2.596 -23.827,9.58 -41.383,18.821 -56.923,29.964 -1.732,1.242 -3.458,2.499 -5.184,3.758 -10.242,7.463 -20.832,15.181 -33.027,19.526 -15.694,5.588 -32.634,6.668 -49.016,7.713 -21.713,1.385 -44.166,2.816 -63.903,14.787 -42.68,25.888 -75.383,63.03 -89.721,101.905 -2.901,7.861 -3.936,15.819 -4.938,23.515 -0.581,4.461 -1.182,9.074 -2.139,13.658 -1.403,6.716 -6.854,28.93 -18.082,32.786 -19.764,6.786 -36.6,-23.241 -42.133,-33.107 -5.429,-9.683 -11.147,-19.408 -16.677,-28.813 -4.702,-7.997 -9.564,-16.266 -14.224,-24.468 -2.885,-5.077 -5.643,-10.368 -8.311,-15.484 -6.116,-11.73 -12.44,-23.86 -20.804,-34.448 -0.588,-0.746 -1.891,-2.028 -3.54,-3.651 -3.216,-3.165 -8.599,-8.461 -8.59,-10.214 l -1.17,-0.006 c -0.011,2.082 3.868,6.064 8.939,11.054 1.556,1.532 2.9,2.854 3.443,3.541 8.295,10.502 14.594,22.582 20.685,34.265 2.672,5.126 5.435,10.426 8.33,15.522 4.665,8.209 9.529,16.482 14.233,24.482 5.527,9.4 11.242,19.12 16.666,28.792 5.65,10.077 22.846,40.739 43.533,33.643 11.49,-3.948 17.009,-24.851 18.848,-33.655 0.966,-4.628 1.57,-9.263 2.153,-13.747 1.039,-7.982 2.021,-15.521 4.875,-23.261 14.249,-38.629 46.773,-75.556 89.231,-101.309 19.491,-11.821 41.798,-13.244 63.371,-14.619 16.462,-1.05 33.484,-2.136 49.334,-7.78 12.355,-4.4 23.014,-12.169 33.323,-19.682 1.725,-1.257 3.447,-2.512 5.177,-3.752 15.461,-11.086 32.941,-20.285 56.678,-29.829 2.121,-0.853 4.308,-1.714 6.542,-2.593 C -34.367,27.538 -11.196,18.42 0.965,0.662 Z"
       style="fill:#00896a;fill-opacity:1;fill-rule:nonzero;stroke:none"
       transform="matrix(0.35277776,0,0,-0.35277776,176.56738,117.81772)"
       clip-path="url(#clipPath32)" />
    <path
       id="path81"
       d="m 0,0 c -1.085,0.796 -2.284,2.272 -3.554,3.836 -0.952,1.172 -1.936,2.383 -2.825,3.226 -4.851,4.609 -15.664,12.458 -25.204,19.382 -5.532,4.016 -10.758,7.809 -13.881,10.303 -4.525,3.614 -9.441,6.867 -14.195,10.013 -3.79,2.507 -7.709,5.099 -11.419,7.868 -2.719,2.027 -5.386,4.208 -7.965,6.317 -5.091,4.162 -10.354,8.466 -16.196,11.735 -7.237,4.049 -15.112,7.228 -22.727,10.303 -1.727,0.698 -3.452,1.394 -5.169,2.1 -3.594,1.477 -7.488,2.582 -11.61,3.752 -6.636,1.883 -13.498,3.829 -18.997,7.459 -4.405,2.909 -8.838,9.698 -9.881,15.134 -4.25,22.135 15.902,33.236 33.683,43.03 5.941,3.272 11.552,6.364 15.857,9.658 8.749,6.695 16.345,16.687 23.221,30.547 1.498,3.02 2.49,6.321 3.449,9.514 1.885,6.271 3.832,12.756 9.695,17.161 5.835,4.385 14.195,3.637 20.824,2.495 5.491,-0.943 10.562,-3.339 15.467,-5.656 3.542,-1.673 7.204,-3.403 10.968,-4.552 l 0.424,-0.129 c 10.706,-3.272 26.886,-8.215 37.459,-4.214 l 0.414,-1.094 c -10.945,-4.146 -27.357,0.87 -38.216,4.189 l -0.423,0.129 c -3.845,1.174 -7.546,2.922 -11.126,4.613 -4.834,2.283 -9.832,4.644 -15.166,5.562 -6.396,1.099 -14.443,1.839 -19.922,-2.279 -5.555,-4.174 -7.363,-10.191 -9.277,-16.561 -0.974,-3.239 -1.979,-6.59 -3.521,-9.697 -6.958,-14.025 -14.664,-24.152 -23.559,-30.957 -4.374,-3.347 -10.024,-6.459 -16.004,-9.753 -17.431,-9.602 -37.187,-20.485 -33.099,-41.786 0.993,-5.169 5.199,-11.619 9.377,-14.377 5.349,-3.53 12.122,-5.452 18.672,-7.311 3.973,-1.127 8.08,-2.292 11.737,-3.795 1.713,-0.704 3.436,-1.4 5.162,-2.097 7.649,-3.089 15.558,-6.282 22.86,-10.367 5.931,-3.319 11.234,-7.656 16.364,-11.849 2.57,-2.102 5.227,-4.274 7.924,-6.287 3.685,-2.748 7.589,-5.331 11.365,-7.83 4.776,-3.159 9.714,-6.426 14.281,-10.074 3.101,-2.476 8.316,-6.262 13.837,-10.269 9.569,-6.947 20.416,-14.82 25.323,-19.481 0.944,-0.895 1.952,-2.137 2.927,-3.338 1.167,-1.436 2.375,-2.923 3.337,-3.63 z"
       style="fill:#00896a;fill-opacity:1;fill-rule:nonzero;stroke:none"
       transform="matrix(0.35277776,0,0,-0.35277776,204.67315,78.711061)"
       clip-path="url(#clipPath82)" />
    <path
       id="path83"
       d="m 0,0 c -1.12,0.51 -2.287,1.455 -3.416,2.37 l -0.627,0.505 c -7.828,6.24 -16.53,11.813 -24.946,17.204 -9.535,6.108 -19.394,12.422 -28.057,19.75 -19.735,16.693 -40.517,32.443 -60.614,47.674 l -6.561,4.975 c -7.249,5.499 -14.744,11.185 -15.723,21.076 -1.376,13.892 10.226,20.415 20.463,26.169 9.501,5.339 22.76,14.339 32.095,26.95 2.379,3.212 4.149,7.01 5.861,10.682 1.511,3.243 3.074,6.596 5.064,9.584 6.473,9.72 17.285,4.981 23.095,2.435 24.934,-10.93 44.461,-12.811 56.467,-5.443 l 0.611,-0.998 c -12.346,-7.578 -32.246,-5.721 -57.548,5.369 -7.605,3.333 -16.181,6.202 -21.65,-2.011 -1.942,-2.915 -3.486,-6.227 -4.978,-9.43 -1.737,-3.725 -3.532,-7.578 -5.98,-10.885 -9.459,-12.777 -22.864,-21.877 -32.443,-27.261 -9.945,-5.591 -21.193,-11.914 -19.893,-25.046 0.929,-9.382 8.218,-14.912 15.266,-20.259 l 6.561,-4.974 c 20.109,-15.241 40.903,-30.999 60.663,-47.714 8.603,-7.278 18.43,-13.571 27.932,-19.658 8.441,-5.406 17.17,-10.997 25.045,-17.275 L -2.68,3.279 C -1.608,2.41 -0.5,1.513 0.484,1.066 Z"
       style="fill:#00896a;fill-opacity:1;fill-rule:nonzero;stroke:none"
       transform="matrix(0.35277776,0,0,-0.35277776,206.38709,74.482211)"
       clip-path="url(#clipPath84)" />
    <path
       id="path85"
       d="m 0,0 c -2.919,0 -5.616,-1.27 -8.245,-3.881 -2.421,-2.404 -4.431,-5.651 -6.375,-8.79 -0.457,-0.738 -0.906,-1.463 -1.351,-2.161 -5.239,-8.222 -12.139,-16.417 -21.094,-25.052 -1.353,-1.304 -2.889,-2.611 -4.515,-3.995 -5.724,-4.871 -12.21,-10.392 -12.242,-17.414 -0.067,-14.702 13.779,-22.982 25.994,-30.289 3.448,-2.063 6.705,-4.01 9.608,-6.051 6.152,-4.324 11.787,-9.446 17.237,-14.399 l 0.296,-0.269 c 3.185,-2.895 7.981,-4.624 12.828,-4.624 3.47,0 6.551,0.888 8.91,2.567 6.447,4.591 8.684,13.475 6.65,26.405 -0.582,3.695 -1.534,7.387 -2.456,10.957 -0.555,2.146 -1.127,4.365 -1.62,6.582 l -0.097,0.435 c -1.199,5.389 -2.692,12.095 -1.625,17.639 1.19,6.179 5.246,10.923 9.168,15.51 4.08,4.77 7.934,9.276 8.505,15.098 0.702,7.162 -6.878,9.944 -16.86,12.837 -3.639,1.054 -7.075,2.05 -9.362,3.423 l -0.208,0.125 C 8.57,-2.597 4.248,0 0,0 m 12.141,-119.569 v 0 c -5.487,0 -10.948,1.985 -14.608,5.311 l -0.295,0.269 c -5.389,4.898 -10.963,9.964 -16.979,14.192 -2.823,1.985 -6.039,3.909 -9.444,5.945 -12.822,7.669 -27.355,16.362 -27.282,32.571 0.037,8.236 7.016,14.176 13.173,19.416 1.594,1.356 3.1,2.638 4.393,3.886 8.803,8.488 15.575,16.524 20.7,24.569 0.439,0.688 0.882,1.403 1.333,2.131 1.93,3.117 4.118,6.65 6.76,9.274 3.148,3.128 6.455,4.65 10.108,4.65 4.981,0 9.824,-2.911 14.509,-5.725 l 0.207,-0.124 c 1.992,-1.196 5.267,-2.146 8.735,-3.151 8.79,-2.547 19.73,-5.717 18.756,-15.635 -0.652,-6.65 -4.96,-11.688 -9.126,-16.559 -3.869,-4.525 -7.523,-8.799 -8.58,-14.291 -0.964,-5.005 0.463,-11.414 1.608,-16.563 l 0.098,-0.437 c 0.482,-2.174 1.05,-4.371 1.599,-6.495 0.937,-3.632 1.906,-7.386 2.507,-11.208 2.204,-14.001 -0.397,-23.748 -7.729,-28.97 -2.809,-1.999 -6.42,-3.056 -10.443,-3.056"
       style="fill:#00896a;fill-opacity:1;fill-rule:nonzero;stroke:none"
       transform="matrix(0.35277776,0,0,-0.35277776,184.42703,11.832441)"
       clip-path="url(#clipPath86)" />
    <path
       id="path87"
       d="m 0,0 c -2.851,0 -5.023,-1.494 -6.644,-4.568 -0.454,-0.862 -1.094,-1.809 -1.772,-2.813 -1.709,-2.53 -3.647,-5.399 -2.977,-7.467 0.332,-1.021 1.287,-1.806 2.919,-2.4 1.853,-0.674 4.166,-1.015 6.877,-1.015 h 10e-4 c 2.514,0 5.385,0.287 8.78,0.879 0.399,0.07 0.823,0.138 1.264,0.208 2.835,0.453 6.364,1.018 8.03,2.78 0.904,0.957 1.267,1.93 1.11,2.976 -0.519,3.466 -6.608,6.916 -9.533,8.574 l -0.772,0.44 C 4.516,-0.81 2.065,0 0,0 m -1.596,-19.434 h -10e-4 c -2.847,0 -5.296,0.366 -7.277,1.086 -1.966,0.716 -3.188,1.772 -3.631,3.14 -0.848,2.609 1.26,5.729 3.119,8.482 0.659,0.977 1.282,1.899 1.707,2.704 3.075,5.833 8.343,6.784 15.547,2.629 l 0.763,-0.434 c 3.324,-1.884 9.511,-5.39 10.115,-9.419 0.21,-1.406 -0.267,-2.736 -1.419,-3.954 -1.938,-2.051 -5.684,-2.65 -8.694,-3.131 -0.436,-0.07 -0.855,-0.137 -1.248,-0.205 -3.461,-0.604 -6.4,-0.898 -8.981,-0.898"
       style="fill:#00896a;fill-opacity:1;fill-rule:nonzero;stroke:none"
       transform="matrix(0.35277776,0,0,-0.35277776,185.65554,16.063371)"
       clip-path="url(#clipPath88)" />
    <path
       id="path89"
       d="m 0,0 c -8.565,0 -21.062,-4.725 -27.066,-6.995 -0.966,-0.365 -1.76,-0.665 -2.339,-0.871 -14.717,-5.22 -22.099,-11.448 -21.94,-18.514 0.157,-6.922 6.511,-12.41 11.616,-16.819 l 0.416,-0.359 c 11.787,-10.192 21.822,-16.005 30.679,-17.77 1.769,-0.353 4.421,-0.821 7.03,-0.821 4.374,0 7.283,1.263 8.892,3.863 4.158,6.719 2.441,16.027 0.782,25.03 -0.828,4.492 -1.61,8.735 -1.613,12.469 -10e-4,2.378 0.541,4.723 1.064,6.99 0.701,3.027 1.362,5.887 0.862,8.857 C 7.823,-1.616 5.081,0 0,0 m -1.604,-63.319 v 0 c -2.712,0 -5.442,0.481 -7.258,0.842 -9.062,1.807 -19.273,7.706 -31.217,18.035 l -0.414,0.357 c -5.281,4.561 -11.854,10.236 -12.022,17.679 -0.172,7.627 7.472,14.236 22.719,19.643 0.573,0.203 1.359,0.5 2.316,0.862 6.07,2.296 18.701,7.071 27.48,7.071 5.667,0 8.876,-1.991 9.537,-5.917 0.538,-3.199 -0.181,-6.308 -0.875,-9.314 -0.51,-2.203 -1.036,-4.481 -1.035,-6.726 0.003,-3.627 0.775,-7.818 1.594,-12.257 1.7,-9.221 3.458,-18.755 -0.939,-25.857 -1.814,-2.932 -5.14,-4.418 -9.886,-4.418"
       style="fill:#00896a;fill-opacity:1;fill-rule:nonzero;stroke:none"
       transform="matrix(0.35277776,0,0,-0.35277776,186.64878,24.312661)"
       clip-path="url(#clipPath90)" />
    <path
       id="path91"
       d="m 0,0 c -6.495,0 -17.981,-7.558 -19.205,-12.636 -0.656,-2.726 0.596,-6.527 3.267,-9.92 2.906,-3.688 6.771,-5.98 10.086,-5.981 h 0.001 c 0.848,0 1.667,0.145 2.436,0.433 3.449,1.292 3.77,6.775 4.029,11.18 0.088,1.505 0.172,2.926 0.374,4.032 0.264,1.445 0.764,2.835 1.247,4.179 0.487,1.354 0.991,2.753 1.23,4.167 0.268,1.585 0.085,2.768 -0.546,3.513 C 2.34,-0.348 1.357,0 0,0 m -5.851,-29.707 h -0.001 c -3.721,0 -7.836,2.403 -11.005,6.428 -2.888,3.667 -4.224,7.85 -3.485,10.917 C -18.904,-6.39 -6.491,1.17 0,1.17 1.718,1.17 3.001,0.684 3.813,-0.277 4.676,-1.299 4.947,-2.8 4.619,-4.741 4.361,-6.259 3.841,-7.707 3.337,-9.108 2.848,-10.468 2.386,-11.752 2.139,-13.103 1.95,-14.138 1.868,-15.524 1.782,-16.992 1.504,-21.736 1.157,-27.641 -3.005,-29.199 c -0.9,-0.337 -1.857,-0.508 -2.846,-0.508"
       style="fill:#00896a;fill-opacity:1;fill-rule:nonzero;stroke:none"
       transform="matrix(0.35277776,0,0,-0.35277776,180.7828,28.644871)"
       clip-path="url(#clipPath92)" />
    <path
       id="path47"
       d="m 0,0 c -10.149,10.544 -26.663,24.215 -40.674,30.99 -19.508,9.426 -41.631,11.644 -63.026,13.789 -7.633,0.766 -15.526,1.557 -23.165,2.664 -42.378,6.143 -65.89,47.371 -76.134,71.401 -5.02,11.774 -7.985,24.156 -10.853,36.13 -1.879,7.844 -3.822,15.956 -6.319,23.777 l -0.29,0.91 c -2.568,8.074 -7.348,23.103 -15.775,27.317 -2.748,1.374 -5.672,1.487 -8.938,0.349 -22.336,-7.788 -32.859,-36.7 -41.313,-59.931 -1.215,-3.337 -2.362,-6.489 -3.496,-9.441 -10.027,-26.088 -30.437,-57.401 -54.596,-83.765 l -3.451,3.163 c 23.783,25.954 43.85,56.712 53.677,82.282 1.12,2.913 2.26,6.045 3.467,9.361 8.329,22.887 19.737,54.231 44.171,62.751 4.458,1.554 8.689,1.358 12.572,-0.583 10.196,-5.098 15.17,-20.738 18.143,-30.084 l 0.288,-0.905 c 2.55,-7.987 4.513,-16.184 6.412,-24.111 2.822,-11.786 5.741,-23.973 10.607,-35.384 9.859,-23.126 32.387,-62.789 72.5,-68.604 7.537,-1.093 15.378,-1.879 22.96,-2.639 21.8,-2.186 44.342,-4.447 64.596,-14.232 C -24.104,28.178 -7.066,14.09 3.373,3.246 Z"
       style="fill:#00896a;fill-opacity:1;fill-rule:nonzero;stroke:none"
       transform="matrix(0.35277776,0,0,-0.35277776,124.57165,117.82494)"
       clip-path="url(#clipPath48-7)" />
    <path
       id="path69"
       d="m 0,0 c -6.354,0 -10.796,-9.024 -12.006,-11.79 -0.858,-1.964 -1.645,-3.985 -2.405,-5.939 -1.413,-3.631 -2.873,-7.385 -4.85,-10.908 l -0.409,-0.727 c -4.377,-7.781 -10.992,-19.536 -3.373,-26.733 3.889,-3.674 9.784,-4.788 15.485,-5.866 3.14,-0.594 6.105,-1.154 8.771,-2.114 9.081,-3.269 17.086,-8.021 23.792,-14.124 0.494,-0.449 1.156,-1.142 1.922,-1.944 2.562,-2.681 6.851,-7.169 9.603,-7.169 0.474,-0.01 1.866,0 2.552,3.146 2.206,10.131 -6.072,20.462 -12.724,28.764 -1.316,1.643 -2.561,3.196 -3.66,4.666 -3.943,5.271 -5.072,12.565 -6.163,19.62 -0.448,2.889 -0.869,5.616 -1.472,8.096 l -0.267,1.102 C 12.991,-14.414 9.969,-1.852 1.369,-0.138 0.913,-0.047 0.453,0 0,0 m 36.53,-88.484 v 0 c -3.252,0 -7.583,4.532 -10.449,7.531 -0.751,0.786 -1.4,1.465 -1.864,1.887 -6.592,5.999 -14.465,10.671 -23.4,13.887 -2.578,0.93 -5.5,1.482 -8.592,2.067 -5.867,1.108 -11.933,2.256 -16.072,6.164 -8.283,7.824 -1.122,20.552 3.158,28.157 l 0.408,0.727 c 1.936,3.451 3.381,7.166 4.779,10.758 0.765,1.966 1.556,3.999 2.424,5.985 C -11.435,-7.565 -6.872,1.17 0,1.17 c 0.529,0 1.067,-0.054 1.598,-0.159 9.334,-1.862 12.465,-14.879 14.336,-22.657 l 0.265,-1.099 c 0.615,-2.528 1.041,-5.28 1.492,-8.193 1.07,-6.914 2.176,-14.062 5.944,-19.099 1.088,-1.455 2.326,-3 3.636,-4.636 6.808,-8.495 15.279,-19.068 12.954,-29.743 -0.588,-2.7 -1.831,-4.068 -3.695,-4.068"
       style="fill:#00896a;fill-opacity:1;fill-rule:nonzero;stroke:none"
       transform="matrix(0.35277776,0,0,-0.35277776,37.519427,50.541883)"
       clip-path="url(#clipPath70-0)" />
    <path
       id="path71"
       d="m 0,0 c -0.203,0 -0.406,-0.011 -0.609,-0.031 -5.275,-0.544 -6.063,-7.296 -6.16,-13.117 -0.075,-4.57 0.781,-10.697 5.29,-13.931 2.445,-1.756 5.708,-2.847 8.516,-2.847 1.728,0 4.159,0.418 5.936,2.405 3.43,3.839 4.22,11.828 -2.152,20.294 C 8.31,-3.894 3.968,0 0,0 m 7.037,-31.096 c 0,0 0.001,0 0,0 -3.04,0 -6.565,1.175 -9.199,3.066 -4.92,3.53 -5.857,10.051 -5.777,14.901 0.067,4.052 0.225,13.542 7.21,14.262 4.626,0.468 9.527,-3.731 12.485,-7.655 4.745,-6.306 7.423,-15.81 2.09,-21.778 -1.635,-1.829 -3.99,-2.796 -6.809,-2.796"
       style="fill:#00896a;fill-opacity:1;fill-rule:nonzero;stroke:none"
       transform="matrix(0.35277776,0,0,-0.35277776,36.594269,57.866502)"
       clip-path="url(#clipPath72-2)" />
    <path
       id="path61"
       d="m 0,0 c -2.401,11.291 -22.654,20.86 -30.278,24.463 -12.542,5.923 -26.373,9.896 -41.109,11.809 -29.852,3.875 -67.377,11.081 -92.795,32.592 -4.881,4.131 -9.155,9.446 -13.288,14.585 -6.435,8.003 -13.09,16.279 -22.138,20.205 -10.022,4.348 -20.771,2.087 -31.948,-6.723 -6.153,-4.852 -10.735,-11.73 -15.166,-18.381 -1.946,-2.922 -3.959,-5.944 -6.076,-8.747 -2.285,-3.028 -4.491,-6.113 -6.624,-9.096 -5.533,-7.74 -10.76,-15.051 -17.551,-21.894 -1.792,-1.806 -3.551,-3.973 -5.415,-6.268 -3.462,-4.264 -7.043,-8.674 -11.251,-11.211 l -1.365,2.266 c 3.812,2.297 7.244,6.524 10.564,10.612 1.905,2.348 3.705,4.564 5.59,6.464 6.641,6.692 11.807,13.918 17.277,21.568 2.142,2.998 4.358,6.097 6.664,9.152 2.07,2.742 4.061,5.73 5.986,8.621 4.546,6.823 9.246,13.879 15.731,18.99 11.829,9.326 23.807,11.772 34.637,7.073 9.647,-4.186 16.509,-12.721 23.146,-20.974 4.055,-5.043 8.248,-10.256 12.935,-14.224 24.891,-21.065 61.935,-28.159 91.428,-31.986 15.009,-1.95 29.106,-6.001 41.897,-12.042 8.697,-4.109 29.062,-13.731 31.735,-26.303 z"
       style="fill:#00896a;fill-opacity:1;fill-rule:nonzero;stroke:none"
       transform="matrix(0.35277776,0,0,-0.35277776,108.1956,119.55169)"
       clip-path="url(#clipPath62-2)" />
    <path
       id="path63"
       d="m 0,0 c -4.42,12.786 -22.113,23.811 -35.921,29.367 -13.249,5.334 -28.097,9.229 -42.936,11.264 -2.506,0.344 -4.971,0.669 -7.4,0.99 -21.731,2.867 -40.499,5.344 -60.182,17.233 -4.009,2.422 -7.803,5.501 -11.82,8.76 -10.38,8.422 -21.115,17.132 -35.498,13.481 -18.183,-4.616 -31.114,-18.147 -43.619,-31.234 -2.058,-2.153 -4.254,-4.264 -6.377,-6.306 -4.209,-4.048 -8.561,-8.233 -11.994,-12.875 -3.52,-4.761 -6.113,-10.222 -8.62,-15.502 -2.066,-4.352 -4.202,-8.851 -6.855,-12.964 l -0.983,0.635 c 2.611,4.048 4.731,8.513 6.781,12.83 2.531,5.332 5.149,10.844 8.737,15.696 3.491,4.722 7.878,8.942 12.122,13.022 2.115,2.035 4.302,4.137 6.33,6.259 12.632,13.22 25.681,26.875 44.19,31.573 14.952,3.8 25.919,-5.102 36.523,-13.706 3.984,-3.233 7.748,-6.287 11.689,-8.667 19.473,-11.763 38.128,-14.224 59.729,-17.075 2.431,-0.321 4.898,-0.646 7.406,-0.99 14.933,-2.049 29.877,-5.969 43.214,-11.338 14.036,-5.648 32.041,-16.913 36.59,-30.07 z"
       style="fill:#00896a;fill-opacity:1;fill-rule:nonzero;stroke:none"
       transform="matrix(0.35277776,0,0,-0.35277776,101.9719,122.55238)"
       clip-path="url(#clipPath64-0)" />
    <path
       id="path1"
       d="m 0,0 c -3.256,0 -6.606,-0.084 -10.244,-0.257 -12.888,-0.615 -26.095,-2.87 -39.255,-6.705 -12.7,-3.695 -24.982,-8.737 -36.505,-14.988 -28.249,-15.333 -51.004,-37.998 -67.633,-67.366 -12.311,-21.75 -16.51,-46.523 -12.837,-75.735 3.897,-31.021 17.601,-61.612 38.587,-86.137 24.524,-28.663 56.245,-49.294 84.854,-55.191 7.457,-1.539 15.607,-2.287 24.914,-2.287 8.911,0 18.047,0.693 25.912,1.344 44.081,3.642 82.398,27.694 107.894,67.724 28.286,44.411 35.054,101.222 17.664,148.26 -5.634,15.171 -15.856,29.734 -32.168,45.829 C 79.797,-24.585 55.095,-9.704 31.629,-3.608 22.281,-1.18 11.935,0 0,0 m -18.119,-309.837 c -9.388,0 -17.614,0.757 -25.151,2.312 -28.854,5.948 -60.819,26.723 -85.506,55.575 -21.133,24.698 -34.933,55.508 -38.859,86.753 -3.705,29.471 0.54,54.48 12.98,76.457 16.738,29.562 39.648,52.38 68.092,67.818 11.598,6.291 23.958,11.366 36.737,15.084 13.248,3.86 26.547,6.131 39.526,6.75 3.656,0.173 7.026,0.258 10.3,0.258 12.035,0 22.478,-1.192 31.924,-3.646 23.66,-6.146 48.548,-21.132 70.079,-42.198 16.44,-16.222 26.749,-30.92 32.445,-46.258 17.515,-47.375 10.704,-104.581 -17.774,-149.295 -25.696,-40.345 -64.33,-64.587 -108.785,-68.261 -7.888,-0.653 -17.053,-1.349 -26.008,-1.349"
       style="fill:#00896a;fill-opacity:1;fill-rule:nonzero;stroke:none"
       transform="matrix(0.35277776,0,0,-0.35277776,114.58807,-69.857008)"
       clip-path="url(#clipPath2)" />
    <path
       id="path3"
       d="m 0,0 c -6.24,0 -12.665,-0.402 -19.096,-1.194 -22.203,-2.745 -45.062,-12.535 -64.365,-27.567 -5.669,-4.414 -10.885,-9.648 -15.084,-15.136 -5.341,-6.978 -10.07,-14.94 -13.676,-23.025 -9.503,-21.327 -14.196,-46.998 -13.572,-74.238 0.698,-30.603 15.265,-58.846 45.841,-88.882 14.158,-13.918 29.306,-24.053 47.672,-31.897 10.989,-4.693 22.756,-7.072 34.971,-7.072 21.616,0 45.292,7.282 72.384,22.261 6.903,3.813 13.186,8.077 18.677,12.673 15.65,13.097 32.904,29.781 42.219,54.238 7.35,19.286 9.883,41.717 7.525,66.669 -2.072,21.913 -12.815,45.953 -28.036,62.738 C 95.162,-28.047 70.693,-12.942 42.731,-5.536 30.814,-2.299 17.818,-0.457 4.095,-0.059 2.733,-0.019 1.368,0 0,0 m 2.691,-271.655 c -12.574,0 -24.69,2.45 -36.01,7.284 -18.423,7.869 -34.284,18.48 -48.487,32.442 -40.857,40.137 -46.181,70.992 -46.631,90.708 -0.632,27.629 4.14,53.694 13.801,75.375 3.689,8.271 8.527,16.416 13.991,23.556 4.334,5.665 9.715,11.064 15.559,15.616 19.675,15.32 42.996,25.302 65.666,28.104 7.973,0.983 15.888,1.379 23.591,1.155 13.932,-0.404 27.136,-2.277 39.246,-5.567 28.455,-7.537 53.355,-22.905 74.002,-45.674 15.586,-17.187 26.587,-41.812 28.71,-64.265 2.395,-25.36 -0.191,-48.191 -7.688,-67.859 -9.53,-25.025 -27.081,-42.01 -42.992,-55.324 -5.62,-4.706 -12.045,-9.066 -19.095,-12.96 -27.493,-15.202 -51.587,-22.591 -73.663,-22.591"
       style="fill:#00896a;fill-opacity:1;fill-rule:nonzero;stroke:none"
       transform="matrix(0.35277776,0,0,-0.35277776,108.53881,-62.900688)"
       clip-path="url(#clipPath4)" />
    <path
       id="path5"
       d="m 0,0 c -1.37,0 -2.755,-0.032 -4.117,-0.095 -26.691,-1.229 -55.232,-16.787 -78.303,-42.685 -5.354,-6.004 -10.249,-13.466 -14.158,-21.581 -14.165,-29.472 -17.456,-64.273 -8.589,-90.821 4.406,-13.182 12.879,-27.297 22.667,-37.758 5.401,-5.775 12.542,-11.415 20.651,-16.308 18.956,-11.453 42.308,-18.021 64.072,-18.021 8.062,0 15.833,0.889 23.097,2.641 9.804,2.366 28.354,7.643 42.434,16.403 27.154,16.899 44.939,46.061 46.414,76.104 1.228,25.185 -4.282,48.602 -16.378,69.602 -5.485,9.525 -12.687,18.964 -21.406,28.053 C 55.395,-12.562 27.554,0 0,0 m 2.223,-231.95 c -22.593,0 -46.827,6.815 -66.491,18.696 -8.472,5.111 -15.959,11.031 -21.651,17.117 -10.224,10.928 -19.079,25.683 -23.688,39.471 -9.238,27.659 -5.861,63.805 8.812,94.334 4.095,8.505 9.241,16.342 14.88,22.666 23.904,26.833 53.641,42.96 81.583,44.247 1.434,0.066 2.891,0.1 4.332,0.1 28.823,0 57.896,-13.088 79.763,-35.908 8.979,-9.36 16.41,-19.103 22.084,-28.956 12.549,-21.79 18.268,-46.07 16.997,-72.167 -1.55,-31.554 -20.179,-62.15 -48.617,-79.85 -14.637,-9.106 -33.731,-14.547 -43.809,-16.979 -7.623,-1.838 -15.764,-2.771 -24.195,-2.771"
       style="fill:#00896a;fill-opacity:1;fill-rule:nonzero;stroke:none"
       transform="matrix(0.35277776,0,0,-0.35277776,111.45854,-56.532238)"
       clip-path="url(#clipPath6)" />
    <path
       id="path7"
       d="m 0,0 c -17.389,0 -36.178,-6.616 -55.845,-19.664 -13.133,-8.709 -23.218,-18.807 -29.977,-30.014 -14.106,-23.412 -18.491,-56.325 -10.914,-81.9 13.438,-45.352 57.775,-65.652 95.756,-65.652 20.207,0 39.399,5.336 55.502,15.43 23.689,14.855 38.527,38.124 40.709,63.841 1.796,21.969 -2.322,42.556 -12.24,61.187 -7.35,13.791 -17.436,26.171 -29.167,35.801 C 47.646,-15.9 39.859,-11.806 31.755,-7.713 21.605,-2.595 10.922,0 0,0 m -0.98,-199.875 c -38.964,0 -84.467,20.886 -98.291,67.545 -7.776,26.244 -3.281,60.008 11.185,84.017 6.962,11.546 17.318,21.926 30.78,30.853 C -37.199,-4.12 -17.918,2.645 0,2.645 c 11.339,0 22.424,-2.691 32.946,-7.997 8.242,-4.163 16.169,-8.333 22.556,-13.575 11.998,-9.849 22.311,-22.506 29.823,-36.602 10.16,-19.086 14.38,-40.164 12.541,-62.649 -2.253,-26.558 -17.54,-50.562 -41.939,-65.863 -16.525,-10.358 -36.203,-15.834 -56.907,-15.834"
       style="fill:#00896a;fill-opacity:1;fill-rule:nonzero;stroke:none"
       transform="matrix(0.35277776,0,0,-0.35277776,112.62194,-50.292128)"
       clip-path="url(#clipPath8)" />
    <path
       id="path9"
       d="m 0,0 c -14.229,0 -27.952,-4.452 -39.686,-12.874 -18.849,-13.527 -39.357,-39.063 -42.681,-65.616 -1.677,-13.394 0.966,-28.793 8.081,-47.078 5.491,-14.097 15.594,-25.835 28.449,-33.054 12.95,-7.274 27.754,-10.964 44.001,-10.964 2.112,0 4.267,0.065 6.404,0.194 8.27,0.502 16.618,1.949 24.811,4.299 7.344,2.107 15.473,5.811 22.89,10.431 13.174,8.218 23.945,20.126 29.549,32.671 9.466,21.172 4.645,51.788 -3.839,71.276 -2.497,5.731 -6.108,11.25 -10.444,15.959 C 58.837,-25.3 49.16,-17.336 38.774,-11.083 31.925,-6.956 24.1,-4.232 18.742,-2.674 12.636,-0.9 6.33,0 0,0 m -1.836,-170.756 c -16.45,0 -31.447,3.739 -44.574,11.114 -13.09,7.35 -23.378,19.3 -28.967,33.65 -7.187,18.471 -9.853,34.056 -8.151,47.648 2.962,23.658 19.903,49.73 43.16,66.421 C -28.434,-3.357 -14.475,1.17 0,1.17 c 6.44,0 12.856,-0.915 19.068,-2.72 5.425,-1.578 13.353,-4.338 20.31,-8.531 10.481,-6.31 20.245,-14.345 29.018,-23.882 4.423,-4.804 8.108,-10.435 10.655,-16.286 8.584,-19.714 13.446,-50.724 3.836,-72.22 -5.698,-12.752 -16.631,-24.848 -29.999,-33.186 -7.507,-4.676 -15.742,-8.427 -23.187,-10.563 -8.275,-2.374 -16.708,-3.835 -25.062,-4.342 -2.16,-0.129 -4.339,-0.196 -6.475,-0.196"
       style="fill:#00896a;fill-opacity:1;fill-rule:nonzero;stroke:none"
       transform="matrix(0.35277776,0,0,-0.35277776,111.29316,-46.685998)"
       clip-path="url(#clipPath10)" />
    <path
       id="path11"
       d="m 0,0 c -4.967,0 -10.42,-0.63 -16.21,-1.873 -20.573,-4.407 -38.547,-18.08 -48.08,-36.575 -7.132,-13.83 -8.363,-29.671 -3.466,-44.603 5.282,-16.106 17.224,-29.77 32.766,-37.488 5.395,-2.679 11.372,-4.794 17.764,-6.283 5.203,-1.214 10.585,-1.829 16.002,-1.829 10.884,0 21.269,2.476 30.032,7.159 17.826,9.527 25.483,31.386 28.767,48.046 1.221,6.185 0.912,14.052 -0.846,21.587 -5.407,23.11 -20.341,41.42 -39.949,48.975 C 11.816,-0.97 6.17,0 0,0 m -1.224,-133.332 c -5.774,0 -11.515,0.657 -17.064,1.952 -6.745,1.571 -13.065,3.808 -18.784,6.65 -16.657,8.272 -29.462,22.931 -35.132,40.22 -5.29,16.134 -3.958,33.254 3.753,48.207 10.169,19.727 29.331,34.31 51.26,39.007 6.111,1.312 11.895,1.977 17.191,1.977 6.748,0 12.96,-1.076 18.464,-3.197 21.054,-8.113 37.062,-27.657 42.823,-52.278 1.904,-8.16 2.226,-16.746 0.88,-23.557 -3.479,-17.653 -11.709,-40.878 -31.152,-51.27 -9.44,-5.044 -20.587,-7.711 -32.239,-7.711"
       style="fill:#00896a;fill-opacity:1;fill-rule:nonzero;stroke:none"
       transform="matrix(0.35277776,0,0,-0.35277776,113.93074,-39.257168)"
       clip-path="url(#clipPath12)" />
    <path
       id="path13"
       d="m 0,0 c -8.788,0 -16.717,-1.961 -22.93,-5.671 -14.462,-8.644 -23.379,-21.465 -23.853,-34.296 -0.339,-9.158 1.994,-18.532 7.134,-28.658 l 0.454,-0.877 c 6.57,-12.365 17.796,-21.854 30.027,-25.382 2.734,-0.79 5.698,-1.191 8.809,-1.191 16.689,0 36.141,11.733 43.361,26.154 6.519,13.035 8.048,29.101 3.894,40.931 -2.794,7.954 -9.736,18.415 -18.375,22.587 C 19.742,-2.275 9.61,0 0,0 m -0.359,-97.245 c -3.221,0 -6.294,0.416 -9.133,1.236 -12.529,3.615 -24.02,13.319 -30.737,25.96 l -0.46,0.886 c -5.236,10.317 -7.61,19.878 -7.263,29.239 0.489,13.229 9.619,26.409 24.422,35.258 6.394,3.818 14.531,5.836 23.53,5.836 9.779,0 20.087,-2.314 29.025,-6.517 8.944,-4.319 16.104,-15.082 18.974,-23.256 4.255,-12.113 2.704,-28.537 -3.95,-41.842 -7.4,-14.777 -27.32,-26.8 -44.408,-26.8"
       style="fill:#00896a;fill-opacity:1;fill-rule:nonzero;stroke:none"
       transform="matrix(0.35277776,0,0,-0.35277776,110.51836,-33.718808)"
       clip-path="url(#clipPath14)" />
  </g>
</svg>
