<?xml version="1.0" encoding="UTF-8" standalone="no"?>
<!-- Created with Inkscape (http://www.inkscape.org/) -->

<svg
   width="194.49908mm"
   height="126.48703mm"
   viewBox="0 0 194.49908 126.48703"
   version="1.1"
   id="svg1"
   inkscape:version="1.3.2 (091e20e, 2023-11-25, custom)"
   sodipodi:docname="bpatttop3.svg"
   xmlns:inkscape="http://www.inkscape.org/namespaces/inkscape"
   xmlns:sodipodi="http://sodipodi.sourceforge.net/DTD/sodipodi-0.dtd"
   xmlns="http://www.w3.org/2000/svg"
   xmlns:svg="http://www.w3.org/2000/svg">
  <sodipodi:namedview
     id="namedview1"
     pagecolor="#ffffff"
     bordercolor="#000000"
     borderopacity="0.25"
     inkscape:showpageshadow="2"
     inkscape:pageopacity="0.0"
     inkscape:pagecheckerboard="0"
     inkscape:deskcolor="#d1d1d1"
     inkscape:document-units="mm"
     inkscape:zoom="0.73890575"
     inkscape:cx="-198.26615"
     inkscape:cy="268.64048"
     inkscape:window-width="2560"
     inkscape:window-height="1369"
     inkscape:window-x="-8"
     inkscape:window-y="-8"
     inkscape:window-maximized="1"
     inkscape:current-layer="layer1" />
  <defs
     id="defs1">
    <clipPath
       clipPathUnits="userSpaceOnUse"
       id="clipPath72">
      <path
         d="M 29.889,33.805 H 581.225 V 758.196 H 29.889 Z"
         transform="translate(-111.43071,-198.59181)"
         id="path72" />
    </clipPath>
    <clipPath
       clipPathUnits="userSpaceOnUse"
       id="clipPath70">
      <path
         d="M 29.889,33.805 H 581.225 V 758.196 H 29.889 Z"
         transform="translate(-114.0532,-219.35451)"
         id="path70" />
    </clipPath>
    <clipPath
       clipPathUnits="userSpaceOnUse"
       id="clipPath48">
      <path
         d="M 29.889,33.805 H 581.225 V 758.196 H 29.889 Z"
         transform="translate(-360.81541,-28.630876)"
         id="path48" />
    </clipPath>
    <clipPath
       clipPathUnits="userSpaceOnUse"
       id="clipPath98">
      <path
         d="M 29.889,33.805 H 581.225 V 758.196 H 29.889 Z"
         transform="translate(-233.00151,-115.59381)"
         id="path98" />
    </clipPath>
    <clipPath
       clipPathUnits="userSpaceOnUse"
       id="clipPath100">
      <path
         d="M 29.889,33.805 H 581.225 V 758.196 H 29.889 Z"
         transform="translate(-349.64841,-89.6113)"
         id="path100" />
    </clipPath>
    <clipPath
       clipPathUnits="userSpaceOnUse"
       id="clipPath62">
      <path
         d="M 29.889,33.805 H 581.225 V 758.196 H 29.889 Z"
         transform="translate(-320.37301,-29.976601)"
         id="path62" />
    </clipPath>
    <clipPath
       clipPathUnits="userSpaceOnUse"
       id="clipPath64">
      <path
         d="M 29.889,33.805 H 581.225 V 758.196 H 29.889 Z"
         transform="translate(-302.73101,-21.470701)"
         id="path64" />
    </clipPath>
    <clipPath
       clipPathUnits="userSpaceOnUse"
       id="clipPath66">
      <path
         d="M 29.889,33.805 H 581.225 V 758.196 H 29.889 Z"
         transform="translate(-269.23831,-22.142626)"
         id="path66" />
    </clipPath>
    <clipPath
       clipPathUnits="userSpaceOnUse"
       id="clipPath68">
      <path
         d="M 29.889,33.805 H 581.225 V 758.196 H 29.889 Z"
         transform="translate(-58.121101,-21.582001)"
         id="path68" />
    </clipPath>
    <clipPath
       clipPathUnits="userSpaceOnUse"
       id="clipPath60">
      <path
         d="M 29.889,33.805 H 581.225 V 758.196 H 29.889 Z"
         transform="translate(-542.09471,-723.40042)"
         id="path60" />
    </clipPath>
    <clipPath
       clipPathUnits="userSpaceOnUse"
       id="clipPath58">
      <path
         d="M 29.889,33.805 H 581.225 V 758.196 H 29.889 Z"
         transform="translate(-521.19731,-707.58452)"
         id="path58" />
    </clipPath>
    <clipPath
       clipPathUnits="userSpaceOnUse"
       id="clipPath56">
      <path
         d="M 29.889,33.805 H 581.225 V 758.196 H 29.889 Z"
         transform="translate(-507.92092,-680.33351)"
         id="path56" />
    </clipPath>
    <clipPath
       clipPathUnits="userSpaceOnUse"
       id="clipPath54">
      <path
         d="M 29.889,33.805 H 581.225 V 758.196 H 29.889 Z"
         transform="translate(-459.01661,-657.41162)"
         id="path54" />
    </clipPath>
    <clipPath
       clipPathUnits="userSpaceOnUse"
       id="clipPath96">
      <path
         d="M 29.889,33.805 H 581.225 V 758.196 H 29.889 Z"
         transform="translate(-248.42041,-743.43312)"
         id="path96" />
    </clipPath>
    <clipPath
       clipPathUnits="userSpaceOnUse"
       id="clipPath46">
      <path
         d="M 29.889,33.805 H 581.225 V 758.196 H 29.889 Z"
         transform="translate(-525.98341,-619.14701)"
         id="path46" />
    </clipPath>
    <clipPath
       clipPathUnits="userSpaceOnUse"
       id="clipPath44">
      <path
         d="M 29.889,33.805 H 581.225 V 758.196 H 29.889 Z"
         transform="translate(-518.66311,-606.67972)"
         id="path44" />
    </clipPath>
    <clipPath
       clipPathUnits="userSpaceOnUse"
       id="clipPath42">
      <path
         d="M 29.889,33.805 H 581.225 V 758.196 H 29.889 Z"
         transform="translate(-548.29882,-599.07622)"
         id="path42" />
    </clipPath>
    <clipPath
       clipPathUnits="userSpaceOnUse"
       id="clipPath40">
      <path
         d="M 29.889,33.805 H 581.225 V 758.196 H 29.889 Z"
         transform="translate(-590.00002,-586.27102)"
         id="path40" />
    </clipPath>
    <clipPath
       clipPathUnits="userSpaceOnUse"
       id="clipPath24">
      <path
         d="M 29.889,33.805 H 581.225 V 758.196 H 29.889 Z"
         transform="translate(-592.87891,-106.0117)"
         id="path24" />
    </clipPath>
    <clipPath
       clipPathUnits="userSpaceOnUse"
       id="clipPath26">
      <path
         d="M 29.889,33.805 H 581.225 V 758.196 H 29.889 Z"
         transform="translate(-588.51661,-71.742204)"
         id="path26" />
    </clipPath>
    <clipPath
       clipPathUnits="userSpaceOnUse"
       id="clipPath28">
      <path
         d="M 29.889,33.805 H 581.225 V 758.196 H 29.889 Z"
         transform="translate(-584.27831,-47.701201)"
         id="path28" />
    </clipPath>
    <clipPath
       clipPathUnits="userSpaceOnUse"
       id="clipPath30">
      <path
         d="M 29.889,33.805 H 581.225 V 758.196 H 29.889 Z"
         transform="translate(-584.55761,-38.587876)"
         id="path30" />
    </clipPath>
    <clipPath
       clipPathUnits="userSpaceOnUse"
       id="clipPath32">
      <path
         d="M 29.889,33.805 H 581.225 V 758.196 H 29.889 Z"
         transform="translate(-507.19921,-25.233376)"
         id="path32" />
    </clipPath>
    <clipPath
       clipPathUnits="userSpaceOnUse"
       id="clipPath82">
      <path
         d="M 29.889,33.805 H 581.225 V 758.196 H 29.889 Z"
         transform="translate(-586.86911,-136.0869)"
         id="path82" />
    </clipPath>
    <clipPath
       clipPathUnits="userSpaceOnUse"
       id="clipPath84">
      <path
         d="M 29.889,33.805 H 581.225 V 758.196 H 29.889 Z"
         transform="translate(-591.72751,-148.07421)"
         id="path84" />
    </clipPath>
    <clipPath
       clipPathUnits="userSpaceOnUse"
       id="clipPath86">
      <path
         d="M 29.889,33.805 H 581.225 V 758.196 H 29.889 Z"
         transform="translate(-529.47851,-325.66411)"
         id="path86" />
    </clipPath>
    <clipPath
       clipPathUnits="userSpaceOnUse"
       id="clipPath90">
      <path
         d="M 29.889,33.805 H 581.225 V 758.196 H 29.889 Z"
         transform="translate(-535.77641,-290.28711)"
         id="path90" />
    </clipPath>
    <clipPath
       clipPathUnits="userSpaceOnUse"
       id="clipPath92">
      <path
         d="M 29.889,33.805 H 581.225 V 758.196 H 29.889 Z"
         transform="translate(-519.14842,-278.0068)"
         id="path92" />
    </clipPath>
    <clipPath
       clipPathUnits="userSpaceOnUse"
       id="clipPath88">
      <path
         d="M 29.889,33.805 H 581.225 V 758.196 H 29.889 Z"
         transform="translate(-532.96091,-313.67091)"
         id="path88" />
    </clipPath>
    <clipPath
       clipPathUnits="userSpaceOnUse"
       id="clipPath48-7">
      <path
         d="M 29.889,33.805 H 581.225 V 758.196 H 29.889 Z"
         transform="translate(-360.81541,-28.630876)"
         id="path48-7" />
    </clipPath>
    <clipPath
       clipPathUnits="userSpaceOnUse"
       id="clipPath70-0">
      <path
         d="M 29.889,33.805 H 581.225 V 758.196 H 29.889 Z"
         transform="translate(-114.0532,-219.35451)"
         id="path70-7" />
    </clipPath>
    <clipPath
       clipPathUnits="userSpaceOnUse"
       id="clipPath72-2">
      <path
         d="M 29.889,33.805 H 581.225 V 758.196 H 29.889 Z"
         transform="translate(-111.43071,-198.59181)"
         id="path72-0" />
    </clipPath>
    <clipPath
       clipPathUnits="userSpaceOnUse"
       id="clipPath62-2">
      <path
         d="M 29.889,33.805 H 581.225 V 758.196 H 29.889 Z"
         transform="translate(-320.37301,-29.976601)"
         id="path62-3" />
    </clipPath>
    <clipPath
       clipPathUnits="userSpaceOnUse"
       id="clipPath64-0">
      <path
         d="M 29.889,33.805 H 581.225 V 758.196 H 29.889 Z"
         transform="translate(-302.73101,-21.470701)"
         id="path64-9" />
    </clipPath>
    <clipPath
       clipPathUnits="userSpaceOnUse"
       id="clipPath2">
      <path
         d="M 29.889,33.805 H 581.225 V 758.196 H 29.889 Z"
         transform="translate(-330.70611,-546.99121)"
         id="path2" />
    </clipPath>
    <clipPath
       clipPathUnits="userSpaceOnUse"
       id="clipPath4">
      <path
         d="M 29.889,33.805 H 581.225 V 758.196 H 29.889 Z"
         transform="translate(-313.55861,-527.27251)"
         id="path4" />
    </clipPath>
    <clipPath
       clipPathUnits="userSpaceOnUse"
       id="clipPath6">
      <path
         d="M 29.889,33.805 H 581.225 V 758.196 H 29.889 Z"
         transform="translate(-321.83501,-509.22022)"
         id="path6" />
    </clipPath>
    <clipPath
       clipPathUnits="userSpaceOnUse"
       id="clipPath8">
      <path
         d="M 29.889,33.805 H 581.225 V 758.196 H 29.889 Z"
         transform="translate(-325.13281,-491.53171)"
         id="path8" />
    </clipPath>
    <clipPath
       clipPathUnits="userSpaceOnUse"
       id="clipPath10">
      <path
         d="M 29.889,33.805 H 581.225 V 758.196 H 29.889 Z"
         transform="translate(-321.36621,-481.30961)"
         id="path10" />
    </clipPath>
    <clipPath
       clipPathUnits="userSpaceOnUse"
       id="clipPath12">
      <path
         d="M 29.889,33.805 H 581.225 V 758.196 H 29.889 Z"
         transform="translate(-328.84281,-460.25151)"
         id="path12" />
    </clipPath>
    <clipPath
       clipPathUnits="userSpaceOnUse"
       id="clipPath14">
      <path
         d="M 29.889,33.805 H 581.225 V 758.196 H 29.889 Z"
         transform="translate(-319.16991,-444.55221)"
         id="path14" />
    </clipPath>
    <clipPath
       clipPathUnits="userSpaceOnUse"
       id="clipPath34">
      <path
         d="M 29.889,33.805 H 581.225 V 758.196 H 29.889 Z"
         transform="translate(-58.767601,-554.13181)"
         id="path34" />
    </clipPath>
    <clipPath
       clipPathUnits="userSpaceOnUse"
       id="clipPath36">
      <path
         d="M 29.889,33.805 H 581.225 V 758.196 H 29.889 Z"
         transform="translate(-31.657701,-579.31931)"
         id="path36" />
    </clipPath>
    <clipPath
       clipPathUnits="userSpaceOnUse"
       id="clipPath38">
      <path
         d="M 29.889,33.805 H 581.225 V 758.196 H 29.889 Z"
         transform="translate(-59.764601,-592.95562)"
         id="path38" />
    </clipPath>
    <clipPath
       clipPathUnits="userSpaceOnUse"
       id="clipPath74">
      <path
         d="M 29.889,33.805 H 581.225 V 758.196 H 29.889 Z"
         transform="translate(-77.483904,-617.16892)"
         id="path74" />
    </clipPath>
    <clipPath
       clipPathUnits="userSpaceOnUse"
       id="clipPath22">
      <path
         d="M 29.889,33.805 H 581.225 V 758.196 H 29.889 Z"
         transform="translate(-52.202602,-544.54591)"
         id="path22" />
    </clipPath>
    <clipPath
       clipPathUnits="userSpaceOnUse"
       id="clipPath20">
      <path
         d="M 29.889,33.805 H 581.225 V 758.196 H 29.889 Z"
         transform="translate(-102.4155,-524.63921)"
         id="path20" />
    </clipPath>
    <clipPath
       clipPathUnits="userSpaceOnUse"
       id="clipPath18">
      <path
         d="M 29.889,33.805 H 581.225 V 758.196 H 29.889 Z"
         transform="translate(-22.500501,-471.75341)"
         id="path18" />
    </clipPath>
  </defs>
  <g
     inkscape:label="Layer 1"
     inkscape:groupmode="layer"
     id="layer1"
     transform="translate(-8.1829533,11.693185)">
    <path
       id="path17"
       d="m 0,0 v 1.17 c 23.493,0 47.208,3.795 70.488,11.28 11.101,3.569 25.394,8.794 37.496,17.599 7.176,5.222 13.967,11.21 20.534,17 4.898,4.319 9.962,8.784 15.158,12.908 17.384,13.795 40.795,30.73 67.759,39.307 33.792,10.748 70.681,6.678 105.566,1.589 4.341,-0.633 8.669,-1.085 12.855,-1.522 8.948,-0.935 17.399,-1.818 26.22,-4.323 11.937,-3.391 24.461,-4.576 36.572,-5.722 22.392,-2.119 45.545,-4.311 64.868,-20.744 29.357,-24.968 62.974,-30.084 104.418,-30.084 v -1.17 c -41.702,0 -75.548,5.163 -105.176,30.362 -19.043,16.195 -40.987,18.272 -64.219,20.471 -12.164,1.151 -24.743,2.341 -36.784,5.761 -8.722,2.477 -17.125,3.355 -26.021,4.285 -4.197,0.438 -8.537,0.892 -12.901,1.528 -34.751,5.07 -71.487,9.126 -105.043,-1.547 C 185.007,89.63 161.708,72.773 144.403,59.04 139.231,54.936 134.178,50.48 129.292,46.171 122.705,40.363 115.893,34.357 108.673,29.103 96.436,20.2 82.03,14.931 70.847,11.335 47.451,3.814 23.615,0 0,0"
       style="fill:#00896a;fill-opacity:1;fill-rule:nonzero;stroke:none"
       transform="matrix(0.35277776,0,0,-0.35277776,6.4379531,63.320638)"
       clip-path="url(#clipPath18)" />
    <path
       id="path19"
       d="m 0,0 c -4.205,0 -8.577,0.353 -13.224,1.046 -14.35,2.139 -38.124,1.243 -55.483,0.588 -3.808,-0.143 -7.349,-0.277 -10.474,-0.368 l -0.034,1.17 c 3.122,0.091 6.659,0.224 10.464,0.368 17.406,0.656 41.242,1.555 55.7,-0.601 16.118,-2.403 28.903,-0.661 42.747,5.819 7.01,3.283 13.896,7.108 20.554,10.808 2.875,1.597 5.75,3.194 8.644,4.755 3.088,1.665 6.183,3.351 9.286,5.041 27.805,15.149 56.557,30.813 88.227,35.902 10.003,1.608 19.777,4.209 29.228,6.725 23.24,6.186 45.189,12.028 70.042,4.164 7.775,-2.459 14.763,-6.64 21.521,-10.683 6.575,-3.933 13.375,-8 20.783,-10.375 8.516,-2.73 17.58,-2.609 26.354,-2.496 4.341,0.057 8.831,0.116 13.208,-0.17 15.036,-0.984 21.945,-6.724 32.403,-15.414 l 0.835,-0.693 c 2.012,-1.671 4.048,-3.452 6.015,-5.174 10.018,-8.766 20.377,-17.83 34.768,-19.147 19.636,-1.797 39.891,-1.76 59.476,-1.726 4.549,0.008 9.098,0.016 13.643,0.002 l -0.004,-1.17 c -4.546,0.014 -9.09,0.005 -13.637,-0.003 -19.609,-0.037 -39.893,-0.071 -59.585,1.732 -14.768,1.351 -25.273,10.543 -35.431,19.432 -1.963,1.717 -3.991,3.492 -5.993,5.154 l -0.835,0.693 c -10.649,8.848 -17.075,14.187 -31.731,15.146 -4.332,0.284 -8.798,0.225 -13.116,0.168 -8.866,-0.117 -18.03,-0.236 -26.727,2.552 -7.537,2.416 -14.395,6.518 -21.027,10.485 -6.7,4.008 -13.629,8.153 -21.273,10.572 -24.531,7.76 -46.318,1.961 -69.388,-4.179 -9.479,-2.524 -19.282,-5.133 -29.343,-6.75 C 125.121,58.315 96.458,42.7 68.739,27.599 65.635,25.908 62.54,24.222 59.45,22.555 56.561,20.997 53.69,19.402 50.819,17.807 44.143,14.098 37.239,10.263 30.192,6.963 20.12,2.247 10.6,0 0,0"
       style="fill:#00896a;fill-opacity:1;fill-rule:nonzero;stroke:none"
       transform="matrix(0.35277776,0,0,-0.35277776,34.630183,44.663708)"
       clip-path="url(#clipPath20)" />
    <path
       id="path21"
       d="m 0,0 c -5.451,0 -10.836,0.041 -16.081,0.081 -4.784,0.036 -9.407,0.071 -13.793,0.071 v 2.644 c 4.392,0 9.022,-0.035 13.813,-0.071 25.119,-0.191 53.584,-0.407 75.916,3.979 31.468,6.177 62.474,20.601 83.059,30.912 3.096,1.551 6.209,3.072 9.322,4.592 7.467,3.646 15.188,7.417 22.524,11.574 5.861,3.323 11.473,7.24 16.9,11.028 3.809,2.658 7.747,5.407 11.763,7.947 17.056,10.786 36.556,15.96 56.432,14.965 11.558,-0.581 25.181,-1.925 38.584,-7.489 11.333,-4.706 22.286,-10.017 32.878,-15.154 19.668,-9.537 38.245,-18.546 59.675,-24.396 3.747,-1.022 7.627,-1.742 11.38,-2.437 6.823,-1.266 13.878,-2.574 20.477,-5.754 4.609,-2.221 8.906,-5.063 13.062,-7.811 4.326,-2.861 8.799,-5.819 13.555,-8.015 11.124,-5.138 20.984,-3.573 32.4,-1.761 1.423,0.226 2.869,0.455 4.342,0.676 14.644,2.195 30.153,1.824 45.153,1.464 l 1.79,-0.043 -0.063,-2.644 -1.791,0.043 c -14.887,0.359 -30.278,0.726 -44.696,-1.435 -1.467,-0.22 -2.905,-0.448 -4.321,-0.673 -11.841,-1.878 -22.067,-3.502 -33.923,1.972 -4.938,2.28 -9.496,5.295 -13.905,8.21 -4.082,2.699 -8.304,5.491 -12.751,7.635 -6.28,3.027 -12.853,4.245 -19.812,5.536 -3.806,0.705 -7.74,1.435 -11.594,2.486 -21.667,5.914 -41.221,15.397 -60.132,24.568 -10.558,5.12 -21.476,10.414 -32.738,15.091 -13.03,5.409 -26.371,6.721 -37.703,7.29 -19.319,0.97 -38.292,-4.065 -54.885,-14.559 -3.965,-2.508 -7.879,-5.239 -11.663,-7.881 -5.478,-3.822 -11.141,-7.775 -17.11,-11.16 -7.406,-4.197 -15.165,-7.985 -22.668,-11.649 -3.104,-1.517 -6.209,-3.033 -9.298,-4.58 C 123.375,24.871 92.148,10.348 60.365,4.109 42.465,0.594 20.785,0 0,0"
       style="fill:#00896a;fill-opacity:1;fill-rule:nonzero;stroke:none"
       transform="matrix(0.35277776,0,0,-0.35277776,16.916193,37.641068)"
       clip-path="url(#clipPath22)" />
    <path
       id="path33"
       d="m 0,0 c -6.742,0 -13.436,0.274 -20.019,0.544 -6.544,0.268 -13.312,0.545 -19.97,0.545 V 5.77 c 6.754,0 13.57,-0.279 20.161,-0.549 12.943,-0.53 26.327,-1.078 39.449,0.513 41.528,5.038 87.113,23.781 135.489,55.71 0.951,0.627 2.479,1.511 4.415,2.63 7.793,4.505 26.043,15.053 27.753,23.106 0.293,1.383 0.045,2.556 -0.781,3.694 -3.307,4.549 -14.284,1.184 -20.843,-0.826 -1.728,-0.529 -3.219,-0.987 -4.449,-1.281 -17.305,-4.138 -35.682,-4 -51.895,-3.881 C 90.892,85.022 72.717,88.739 55.14,92.333 37.604,95.92 19.473,99.627 1.465,99.627 H 1.177 C -5.117,99.613 -17.23,99.62 -26.959,99.624 l -10.366,0.003 v 4.681 l 10.368,-0.003 c 9.725,-0.005 21.831,-0.01 28.124,0.003 0.1,10e-4 0.2,10e-4 0.3,10e-4 18.48,0 36.846,-3.756 54.611,-7.39 17.357,-3.549 35.305,-7.22 53.267,-7.353 15.946,-0.117 34.021,-0.252 50.771,3.753 1.087,0.26 2.514,0.698 4.166,1.204 8.254,2.531 20.73,6.355 26.001,-0.898 1.617,-2.225 2.146,-4.72 1.573,-7.417 C 189.714,76.117 171.6,65.647 161.868,60.022 159.999,58.941 158.523,58.088 157.688,57.538 108.702,25.206 62.438,6.213 20.185,1.088 13.455,0.271 6.704,0 0,0"
       style="fill:#00896a;fill-opacity:1;fill-rule:nonzero;stroke:none"
       transform="matrix(0.35277776,0,0,-0.35277776,19.232173,34.259368)"
       clip-path="url(#clipPath34)" />
    <path
       id="path35"
       d="m 0,0 c -0.688,0 -1.369,0 -2.049,0 h -1.953 v 2.645 h 1.953 C 26.796,2.624 62.654,2.637 90.104,8.92 c 21.429,4.904 40.369,13.954 51.964,24.829 2.466,2.313 5.22,5.617 4.335,8.223 -0.985,2.905 -6.518,5.132 -14.799,5.956 -15.077,1.501 -30.2,4.235 -44.825,6.878 -6.645,1.201 -13.516,2.444 -20.285,3.552 -2.16,0.353 -4.36,0.756 -6.583,1.162 -6.85,1.252 -13.933,2.547 -20.635,2.547 H 39.145 C 34.235,62.055 27.02,61.249 19.38,60.395 10.39,59.39 1.094,58.35 -4.943,58.592 l 0.106,2.642 c 5.835,-0.234 15.031,0.795 23.924,1.789 7.713,0.862 14.997,1.676 20.051,1.688 h 0.138 c 6.942,0 14.144,-1.316 21.111,-2.59 2.206,-0.403 4.39,-0.802 6.534,-1.154 6.791,-1.112 13.673,-2.356 20.329,-3.559 14.574,-2.634 29.644,-5.358 44.616,-6.848 6.807,-0.678 15.288,-2.571 17.042,-7.738 1.072,-3.163 -0.62,-6.864 -5.031,-11.002 C 131.95,20.634 112.566,11.348 90.694,6.342 63.604,0.142 28.596,0 0,0"
       style="fill:#00896a;fill-opacity:1;fill-rule:nonzero;stroke:none"
       transform="matrix(0.35277776,0,0,-0.35277776,9.6684031,25.373778)"
       clip-path="url(#clipPath36)" />
    <path
       id="path37"
       d="m 0,0 c -6.756,0 -13.393,0.124 -19.343,0.235 -5.006,0.094 -9.733,0.182 -13.654,0.182 v 1.17 c 3.932,0 8.665,-0.088 13.676,-0.182 18.903,-0.353 44.787,-0.836 59.02,2.942 5.7,1.512 18.697,7.019 20.188,13.526 0.521,2.274 -0.481,4.515 -2.978,6.66 -6.745,5.793 -25.517,9.922 -33.275,11.428 -8.368,1.625 -16.721,-1.147 -24.799,-3.827 -11.274,-3.741 -22.934,-7.61 -34.82,0.341 l 0.651,0.972 c 11.409,-7.631 22.285,-4.023 33.801,-0.202 8.22,2.727 16.722,5.55 25.39,3.865 9.75,-1.893 27.107,-5.929 33.815,-11.69 2.852,-2.45 3.981,-5.077 3.356,-7.808 C 59.403,10.52 46.159,4.85 39.999,3.216 30.122,0.594 14.782,0 0,0"
       style="fill:#00896a;fill-opacity:1;fill-rule:nonzero;stroke:none"
       transform="matrix(0.35277776,0,0,-0.35277776,19.583893,20.563198)"
       clip-path="url(#clipPath38)" />
    <path
       id="path73"
       d="m 0,0 c -4.503,0 -8.203,-0.349 -9.872,-0.695 -3.66,-0.762 -5.919,-2.134 -6.531,-3.97 -0.568,-1.703 0.274,-3.899 2.433,-6.351 4.616,-5.242 14.942,-5.808 19.166,-5.808 2.262,0 4.51,0.142 6.501,0.411 3.294,0.446 10.547,4.932 10.613,8.417 0.023,1.247 -0.429,2.327 -1.384,3.299 C 16.767,-0.458 4.906,0 0,0 m 5.196,-17.995 c -5.445,0 -15.29,0.807 -20.044,6.205 -2.485,2.823 -3.382,5.344 -2.665,7.495 0.762,2.286 3.253,3.882 7.403,4.745 1.728,0.359 5.524,0.72 10.11,0.72 5.054,0 17.292,-0.492 21.762,-5.047 1.169,-1.192 1.747,-2.585 1.718,-4.141 -0.086,-4.538 -8.298,-9.104 -11.626,-9.554 -2.042,-0.277 -4.344,-0.423 -6.658,-0.423"
       style="fill:#00896a;fill-opacity:1;fill-rule:nonzero;stroke:none"
       transform="matrix(0.35277776,0,0,-0.35277776,25.834873,12.021288)"
       clip-path="url(#clipPath74)" />
  </g>
</svg>
