<?xml version="1.0" encoding="UTF-8" standalone="no"?>
<!-- Created with Inkscape (http://www.inkscape.org/) -->

<svg
   width="194.49908mm"
   height="60.651306mm"
   viewBox="0 0 194.49908 60.651306"
   version="1.1"
   id="svg1"
   inkscape:version="1.3.2 (091e20e, 2023-11-25, custom)"
   sodipodi:docname="bpatttop.svg"
   xmlns:inkscape="http://www.inkscape.org/namespaces/inkscape"
   xmlns:sodipodi="http://sodipodi.sourceforge.net/DTD/sodipodi-0.dtd"
   xmlns="http://www.w3.org/2000/svg"
   xmlns:svg="http://www.w3.org/2000/svg">
  <sodipodi:namedview
     id="namedview1"
     pagecolor="#ffffff"
     bordercolor="#000000"
     borderopacity="0.25"
     inkscape:showpageshadow="2"
     inkscape:pageopacity="0.0"
     inkscape:pagecheckerboard="0"
     inkscape:deskcolor="#d1d1d1"
     inkscape:document-units="mm"
     inkscape:zoom="0.52248527"
     inkscape:cx="-14.354472"
     inkscape:cy="580.87762"
     inkscape:window-width="2560"
     inkscape:window-height="1369"
     inkscape:window-x="-8"
     inkscape:window-y="-8"
     inkscape:window-maximized="1"
     inkscape:current-layer="layer1" />
  <defs
     id="defs1">
    <clipPath
       clipPathUnits="userSpaceOnUse"
       id="clipPath72">
      <path
         d="M 29.889,33.805 H 581.225 V 758.196 H 29.889 Z"
         transform="translate(-111.43071,-198.59181)"
         id="path72" />
    </clipPath>
    <clipPath
       clipPathUnits="userSpaceOnUse"
       id="clipPath70">
      <path
         d="M 29.889,33.805 H 581.225 V 758.196 H 29.889 Z"
         transform="translate(-114.0532,-219.35451)"
         id="path70" />
    </clipPath>
    <clipPath
       clipPathUnits="userSpaceOnUse"
       id="clipPath48">
      <path
         d="M 29.889,33.805 H 581.225 V 758.196 H 29.889 Z"
         transform="translate(-360.81541,-28.630876)"
         id="path48" />
    </clipPath>
    <clipPath
       clipPathUnits="userSpaceOnUse"
       id="clipPath98">
      <path
         d="M 29.889,33.805 H 581.225 V 758.196 H 29.889 Z"
         transform="translate(-233.00151,-115.59381)"
         id="path98" />
    </clipPath>
    <clipPath
       clipPathUnits="userSpaceOnUse"
       id="clipPath100">
      <path
         d="M 29.889,33.805 H 581.225 V 758.196 H 29.889 Z"
         transform="translate(-349.64841,-89.6113)"
         id="path100" />
    </clipPath>
    <clipPath
       clipPathUnits="userSpaceOnUse"
       id="clipPath62">
      <path
         d="M 29.889,33.805 H 581.225 V 758.196 H 29.889 Z"
         transform="translate(-320.37301,-29.976601)"
         id="path62" />
    </clipPath>
    <clipPath
       clipPathUnits="userSpaceOnUse"
       id="clipPath64">
      <path
         d="M 29.889,33.805 H 581.225 V 758.196 H 29.889 Z"
         transform="translate(-302.73101,-21.470701)"
         id="path64" />
    </clipPath>
    <clipPath
       clipPathUnits="userSpaceOnUse"
       id="clipPath66">
      <path
         d="M 29.889,33.805 H 581.225 V 758.196 H 29.889 Z"
         transform="translate(-269.23831,-22.142626)"
         id="path66" />
    </clipPath>
    <clipPath
       clipPathUnits="userSpaceOnUse"
       id="clipPath68">
      <path
         d="M 29.889,33.805 H 581.225 V 758.196 H 29.889 Z"
         transform="translate(-58.121101,-21.582001)"
         id="path68" />
    </clipPath>
    <clipPath
       clipPathUnits="userSpaceOnUse"
       id="clipPath60">
      <path
         d="M 29.889,33.805 H 581.225 V 758.196 H 29.889 Z"
         transform="translate(-542.09471,-723.40042)"
         id="path60" />
    </clipPath>
    <clipPath
       clipPathUnits="userSpaceOnUse"
       id="clipPath58">
      <path
         d="M 29.889,33.805 H 581.225 V 758.196 H 29.889 Z"
         transform="translate(-521.19731,-707.58452)"
         id="path58" />
    </clipPath>
    <clipPath
       clipPathUnits="userSpaceOnUse"
       id="clipPath56">
      <path
         d="M 29.889,33.805 H 581.225 V 758.196 H 29.889 Z"
         transform="translate(-507.92092,-680.33351)"
         id="path56" />
    </clipPath>
    <clipPath
       clipPathUnits="userSpaceOnUse"
       id="clipPath54">
      <path
         d="M 29.889,33.805 H 581.225 V 758.196 H 29.889 Z"
         transform="translate(-459.01661,-657.41162)"
         id="path54" />
    </clipPath>
    <clipPath
       clipPathUnits="userSpaceOnUse"
       id="clipPath96">
      <path
         d="M 29.889,33.805 H 581.225 V 758.196 H 29.889 Z"
         transform="translate(-248.42041,-743.43312)"
         id="path96" />
    </clipPath>
    <clipPath
       clipPathUnits="userSpaceOnUse"
       id="clipPath46">
      <path
         d="M 29.889,33.805 H 581.225 V 758.196 H 29.889 Z"
         transform="translate(-525.98341,-619.14701)"
         id="path46" />
    </clipPath>
    <clipPath
       clipPathUnits="userSpaceOnUse"
       id="clipPath44">
      <path
         d="M 29.889,33.805 H 581.225 V 758.196 H 29.889 Z"
         transform="translate(-518.66311,-606.67972)"
         id="path44" />
    </clipPath>
    <clipPath
       clipPathUnits="userSpaceOnUse"
       id="clipPath42">
      <path
         d="M 29.889,33.805 H 581.225 V 758.196 H 29.889 Z"
         transform="translate(-548.29882,-599.07622)"
         id="path42" />
    </clipPath>
    <clipPath
       clipPathUnits="userSpaceOnUse"
       id="clipPath40">
      <path
         d="M 29.889,33.805 H 581.225 V 758.196 H 29.889 Z"
         transform="translate(-590.00002,-586.27102)"
         id="path40" />
    </clipPath>
  </defs>
  <g
     inkscape:label="Layer 1"
     inkscape:groupmode="layer"
     id="layer1"
     transform="translate(-7.668129,-4.9351042)">
    <path
       id="path39"
       d="m 0,0 c -37.46,0 -84.269,1.372 -120.094,3.531 -37.625,2.267 -65.906,9.928 -84.058,22.77 -10.05,7.11 -20.443,14.461 -32.284,19.04 -7.832,3.031 -16.137,4.196 -24.17,5.322 -4.07,0.57 -8.278,1.16 -12.412,1.986 -14.635,2.926 -33.786,7.116 -52.127,13.596 -18.844,6.661 -38.769,6.926 -57.493,6.221 -4.287,-0.162 -8.579,-0.352 -12.874,-0.543 -21.143,-0.937 -43.004,-1.906 -64.387,0.712 -10.502,1.286 -24.104,3.484 -36.161,9.108 -4.313,2.011 -8.43,4.737 -12.412,7.373 -4.96,3.284 -10.088,6.679 -15.575,8.664 -12.574,4.547 -31.226,7.14 -42.549,3.296 l -0.376,1.108 c 11.576,3.931 30.557,1.313 43.324,-3.303 5.617,-2.033 10.805,-5.467 15.822,-8.789 3.946,-2.613 8.027,-5.314 12.26,-7.288 11.909,-5.554 25.393,-7.731 35.81,-9.008 21.285,-2.605 43.098,-1.638 64.192,-0.704 4.298,0.191 8.593,0.382 12.882,0.543 18.84,0.707 38.898,0.439 57.927,-6.286 18.271,-6.456 37.369,-10.634 51.966,-13.552 4.102,-0.819 8.292,-1.407 12.345,-1.975 8.098,-1.136 16.473,-2.31 24.43,-5.389 11.977,-4.631 22.429,-12.026 32.537,-19.177 17.972,-12.714 46.049,-20.303 83.454,-22.557 C -83.388,2.491 -35.245,1.103 2.594,1.172 L 2.596,0.002 C 1.736,0.001 0.87,0 0,0"
       style="fill:#00896a;fill-opacity:1;fill-rule:nonzero;stroke:none"
       transform="matrix(0.35277776,0,0,-0.35277776,205.26284,65.586412)"
       clip-path="url(#clipPath40)" />
    <path
       id="path41"
       d="m 0,0 c -12.807,0 -26.078,0.37 -39.126,0.734 -12.685,0.354 -24.642,0.689 -35.658,0.665 l -1.198,-0.003 c -16.345,-0.035 -33.246,-0.075 -49.64,3.68 -15.9,3.642 -27.275,9.521 -42.704,19.095 -11.699,7.259 -24.197,14.377 -37.147,21.154 -12.542,6.565 -26.204,10.633 -36.705,13.444 -40.148,10.746 -76.035,18.117 -109.71,22.535 -9.312,1.221 -19.163,1.739 -28.689,2.24 -10.554,0.555 -21.468,1.128 -31.963,2.654 -12.698,1.846 -24.273,6.474 -35.468,10.95 -7.889,3.155 -16.048,6.417 -24.57,8.701 -10.352,2.773 -28.355,2.442 -41.498,2.201 -3.365,-0.062 -6.543,-0.12 -9.229,-0.121 l -0.001,1.17 c 2.676,10e-4 5.849,0.059 9.209,0.121 13.212,0.242 31.31,0.575 41.822,-2.241 8.588,-2.302 16.78,-5.577 24.702,-8.744 11.131,-4.451 22.641,-9.053 35.201,-10.879 10.442,-1.518 21.328,-2.09 31.856,-2.644 9.549,-0.502 19.423,-1.021 28.78,-2.248 33.727,-4.424 69.662,-11.805 109.861,-22.565 10.56,-2.826 24.301,-6.919 36.945,-13.537 12.975,-6.791 25.497,-13.922 37.221,-21.197 15.32,-9.507 26.607,-15.343 42.349,-18.948 16.263,-3.727 33.095,-3.693 49.375,-3.651 l 1.199,0.003 c 10.988,0.03 22.998,-0.312 35.693,-0.665 25.73,-0.718 52.336,-1.46 74.455,0.664 L 35.474,1.403 C 24.521,0.352 12.481,0 0,0"
       style="fill:#00896a;fill-opacity:1;fill-rule:nonzero;stroke:none"
       transform="matrix(0.35277776,0,0,-0.35277776,190.55159,61.069022)"
       clip-path="url(#clipPath42)" />
    <path
       id="path43"
       d="m 0,0 c -0.733,0 -1.451,0.005 -2.153,0.016 -14.442,0.216 -28.899,2.591 -42.88,4.887 -3.656,0.6 -7.311,1.201 -10.967,1.764 -7.523,1.16 -15.27,1.676 -22.761,2.175 -14.386,0.959 -29.263,1.95 -43.141,7.554 -17.323,6.996 -32.901,17.926 -47.966,28.496 -2.346,1.645 -4.687,3.288 -7.029,4.912 -4.662,3.233 -9.231,6.767 -13.649,10.186 -9.172,7.097 -18.656,14.436 -29.41,19.391 -14.388,6.63 -31.062,10.169 -50.974,10.818 -10.71,0.348 -21.786,-0.283 -33.513,-0.952 -22.876,-1.307 -46.531,-2.658 -67.341,3.801 -9.116,2.828 -16.56,8.415 -23.759,13.818 -2.862,2.148 -5.822,4.369 -8.865,6.406 -22.113,14.797 -61.745,18.848 -89.209,16.351 l -0.106,1.165 c 27.665,2.518 67.616,-1.589 89.965,-16.543 3.07,-2.055 6.043,-4.286 8.917,-6.443 7.447,-5.589 14.481,-10.868 23.404,-13.636 20.608,-6.396 44.155,-5.051 66.927,-3.751 11.754,0.67 22.857,1.305 33.618,0.954 20.072,-0.655 36.893,-4.228 51.425,-10.925 10.875,-5.011 20.413,-12.391 29.638,-19.528 4.406,-3.41 8.962,-6.935 13.598,-10.15 2.344,-1.626 4.687,-3.27 7.035,-4.916 15.011,-10.533 30.534,-21.423 47.731,-28.369 13.705,-5.534 28.487,-6.519 42.782,-7.471 7.516,-0.501 15.287,-1.018 22.861,-2.186 3.66,-0.564 7.318,-1.165 10.979,-1.766 C -30.904,3.769 -16.49,1.401 -2.136,1.186 7.958,1.039 21.491,2.021 34.579,2.976 46.325,3.833 58.47,4.719 67.717,4.732 L 67.719,3.563 C 58.514,3.549 46.39,2.665 34.665,1.809 22.459,0.918 9.865,0 0,0"
       style="fill:#00896a;fill-opacity:1;fill-rule:nonzero;stroke:none"
       transform="matrix(0.35277776,0,0,-0.35277776,180.09677,58.386682)"
       clip-path="url(#clipPath44)" />
    <path
       id="path45"
       d="m 0,0 c -24.552,0 -49.807,1.33 -73.229,2.75 -2.079,0.126 -4.167,0.233 -6.259,0.341 -8.639,0.445 -17.571,0.905 -26.125,2.716 -8.465,1.791 -16.059,5.834 -23.403,9.744 -1.482,0.789 -2.966,1.579 -4.462,2.353 -2.256,1.17 -4.601,2.309 -6.869,3.411 -7.811,3.794 -15.888,7.718 -22.383,13.819 -4.214,3.958 -9.087,7.543 -13.8,11.01 -6.64,4.884 -13.504,9.934 -18.757,16.174 -1.638,1.946 -3.222,3.909 -4.752,5.808 -9.727,12.063 -18.127,22.482 -35.378,23.301 -21.532,1.021 -43.326,-1.341 -64.403,-3.628 l -2.183,-0.236 c -3.307,-0.358 -6.705,-0.811 -10.304,-1.291 -16.965,-2.261 -36.195,-4.824 -51.446,2.326 -6.236,2.923 -12.188,6.711 -17.943,10.373 -8.185,5.208 -16.648,10.594 -26.013,13.533 -2.16,0.678 -4.382,1.389 -6.649,2.115 -11.42,3.657 -24.365,7.802 -35.8,9.599 -18.195,2.856 -37.593,3.241 -54.169,3.241 v 1.17 c 16.62,0 36.076,-0.387 54.351,-3.255 11.524,-1.811 24.514,-5.971 35.975,-9.641 2.264,-0.725 4.484,-1.436 6.643,-2.113 9.511,-2.985 18.041,-8.412 26.29,-13.662 5.724,-3.643 11.644,-7.409 17.812,-10.301 14.939,-7.004 33.988,-4.465 50.795,-2.225 3.606,0.481 7.011,0.935 10.332,1.294 l 2.183,0.237 c 21.121,2.291 42.961,4.662 64.585,3.633 17.775,-0.844 26.741,-11.963 36.233,-23.736 1.526,-1.894 3.107,-3.852 4.735,-5.788 5.164,-6.134 11.972,-11.142 18.556,-15.985 4.74,-3.487 9.643,-7.093 13.907,-11.1 6.366,-5.979 14.362,-9.863 22.094,-13.619 2.274,-1.105 4.626,-2.248 6.898,-3.425 1.498,-0.776 2.986,-1.568 4.472,-2.36 7.272,-3.871 14.791,-7.874 23.095,-9.632 8.464,-1.792 17.35,-2.249 25.943,-2.691 2.097,-0.108 4.188,-0.216 6.269,-0.342 42.98,-2.605 92.146,-4.91 131.697,0.769 L 58.704,3.529 C 40.63,0.934 20.561,0 0,0"
       style="fill:#00896a;fill-opacity:1;fill-rule:nonzero;stroke:none"
       transform="matrix(0.35277776,0,0,-0.35277776,182.67921,53.988492)"
       clip-path="url(#clipPath46)" />
    <path
       id="path53"
       d="m 0,0 c -18.812,0 -37.671,1.682 -56.227,7.126 -28.505,8.363 -49.447,20.13 -65.904,37.031 -3.215,3.302 -6.239,7.254 -9.164,11.074 -4.78,6.246 -9.724,12.703 -15.608,16.523 -7.579,4.92 -17.878,9.191 -27.838,13.321 -4.709,1.952 -9.156,3.797 -13.191,5.657 -11.504,5.306 -24.368,10.414 -37.204,14.775 l 1.506,4.432 c 12.987,-4.412 26.009,-9.584 37.658,-14.956 3.952,-1.822 8.359,-3.65 13.024,-5.584 10.155,-4.211 20.655,-8.565 28.594,-13.719 6.562,-4.26 11.754,-11.043 16.776,-17.603 2.973,-3.884 5.78,-7.552 8.801,-10.654 15.872,-16.301 36.167,-27.678 63.869,-35.805 32.964,-9.673 67.331,-7.146 100.564,-4.702 9.902,0.728 20.141,1.481 30.213,1.904 1.798,0.076 5.293,0.329 9.718,0.651 17.03,1.236 32.684,2.262 37.131,1.269 l -1.02,-4.569 C 117.552,7.096 96.979,5.604 85.926,4.802 81.461,4.478 77.935,4.222 76.066,4.144 66.066,3.723 55.865,2.973 46,2.248 30.834,1.132 15.433,0 0,0"
       style="fill:#00896a;fill-opacity:1;fill-rule:nonzero;stroke:none"
       transform="matrix(0.35277776,0,0,-0.35277776,159.05481,40.489592)"
       clip-path="url(#clipPath54)" />
    <path
       id="path55"
       d="m 0,0 c -18.092,0 -36.844,1.805 -57.394,5.426 -5.973,1.053 -12.194,1.881 -18.78,2.757 -19.534,2.599 -39.733,5.286 -55.924,14.212 -7.23,3.985 -10.619,8.054 -10.359,12.439 0.551,9.303 18.088,16.417 32.18,22.134 5.631,2.284 10.495,4.257 12.856,5.835 6.608,4.414 12.473,10.142 18.143,15.682 3.318,3.241 6.75,6.593 10.303,9.658 l 1.727,-2.003 c -3.491,-3.011 -6.893,-6.334 -10.182,-9.547 -5.758,-5.623 -11.71,-11.439 -18.522,-15.989 -2.585,-1.728 -7.566,-3.748 -13.331,-6.087 -12.696,-5.15 -30.082,-12.203 -30.534,-19.839 -0.191,-3.219 2.836,-6.572 8.997,-9.967 15.755,-8.687 35.703,-11.34 54.995,-13.907 6.614,-0.88 12.862,-1.711 18.89,-2.773 C -17.859,1.145 14.661,0.874 48.509,7.153 60.413,9.36 71.15,12.277 80.423,15.822 l 0.945,-2.469 C 71.945,9.75 61.053,6.79 48.991,4.554 32.641,1.521 16.598,0 0,0"
       style="fill:#00896a;fill-opacity:1;fill-rule:nonzero;stroke:none"
       transform="matrix(0.35277776,0,0,-0.35277776,176.30716,32.403262)"
       clip-path="url(#clipPath56)" />
    <path
       id="path57"
       d="m 0,0 c -12.794,0 -26.624,1.302 -41.788,3.917 -1.452,0.251 -3.543,0.486 -5.964,0.757 -12.926,1.45 -36.985,4.148 -36.974,17.79 0.006,6.913 6.017,10.164 11.32,13.033 2.088,1.129 4.059,2.195 5.631,3.427 3.505,2.746 5.717,6.566 7.856,10.26 1.96,3.385 3.986,6.886 7.007,9.582 l 0.779,-0.873 c -2.881,-2.571 -4.771,-5.837 -6.773,-9.295 -2.195,-3.79 -4.464,-7.71 -8.148,-10.595 -1.648,-1.293 -3.663,-2.382 -5.796,-3.536 -5.26,-2.845 -10.7,-5.788 -10.706,-12.004 -0.01,-12.595 23.372,-15.217 35.934,-16.626 2.439,-0.274 4.546,-0.51 6.033,-0.766 C -17.494,0.915 3.212,0.09 21.711,2.55 44.512,5.584 60.932,15.435 74.948,34.49 l 0.944,-0.693 C 61.67,14.464 45.008,4.469 21.865,1.39 14.907,0.464 7.637,0 0,0"
       style="fill:#00896a;fill-opacity:1;fill-rule:nonzero;stroke:none"
       transform="matrix(0.35277776,0,0,-0.35277776,180.99078,22.789709)"
       clip-path="url(#clipPath58)" />
    <path
       id="path59"
       d="m 0,0 c -4.04,0 -8.154,0.289 -12.229,0.576 -1.116,0.078 -2.225,0.156 -3.326,0.227 -8.081,0.524 -16.237,1.465 -24.125,2.375 -4.88,0.563 -9.926,1.145 -14.9,1.622 -1.048,0.1 -2.349,0.169 -3.854,0.248 -8.844,0.465 -23.647,1.244 -23.752,10.926 -0.047,4.387 4.169,7.561 7.248,9.879 0.313,0.235 0.617,0.464 0.905,0.686 2.041,1.566 5.104,6.672 8.068,11.61 0.542,0.903 1.081,1.802 1.612,2.675 l 1,-0.607 c -0.53,-0.872 -1.068,-1.769 -1.609,-2.67 -3.019,-5.032 -6.142,-10.235 -8.358,-11.937 -0.291,-0.223 -0.598,-0.454 -0.914,-0.693 -3.04,-2.288 -6.823,-5.135 -6.782,-8.93 0.093,-8.584 14.209,-9.327 22.644,-9.771 1.518,-0.08 2.83,-0.149 3.903,-0.251 4.986,-0.478 10.037,-1.061 14.923,-1.625 7.873,-0.908 16.015,-1.848 24.067,-2.369 1.103,-0.071 2.214,-0.149 3.332,-0.228 14.22,-1 28.927,-2.034 38.919,9.611 3.164,3.686 4.496,6.505 4.193,8.874 -0.407,3.193 -3.882,5.608 -8.28,8.666 -4.094,2.846 -9.188,6.388 -13.554,11.793 l 0.91,0.735 c 4.261,-5.275 9.279,-8.763 13.312,-11.567 4.637,-3.224 8.299,-5.771 8.773,-9.479 0.348,-2.72 -1.071,-5.829 -4.465,-9.784 C 20.199,1.896 10.344,0 0,0"
       style="fill:#00896a;fill-opacity:1;fill-rule:nonzero;stroke:none"
       transform="matrix(0.35277776,0,0,-0.35277776,188.36292,17.210211)"
       clip-path="url(#clipPath60)" />
    <path
       id="path95"
       d="m 0,0 c -4.446,0 -9.001,-1.667 -13.408,-3.278 -3.085,-1.129 -6.275,-2.296 -9.439,-2.903 -1.441,-0.277 -2.891,-0.54 -4.344,-0.804 -7.457,-1.356 -15.168,-2.758 -21.63,-5.989 -2.281,-1.141 -9.223,-4.613 -9.235,-7.793 -0.005,-1.222 1.068,-2.389 3.187,-3.468 2.156,-1.098 5.378,-1.656 9.577,-1.656 6.52,0 14.123,1.292 20.232,2.329 2.346,0.399 4.372,0.743 6.023,0.96 10.125,1.332 20.699,1.98 32.325,1.98 1.553,0 3.647,-0.222 6.07,-0.48 2.984,-0.317 6.366,-0.677 9.43,-0.677 h 0.001 c 4.122,0 6.774,0.652 8.105,1.992 0.681,0.686 1.008,1.552 1.001,2.648 -0.045,6.218 -6.013,7.597 -11.277,8.813 -1.099,0.254 -2.138,0.494 -3.096,0.771 -2.855,0.826 -5.696,2.064 -8.444,3.261 -4.712,2.053 -9.585,4.175 -14.681,4.29 z m -45.292,-27.061 c -4.447,0 -7.753,0.583 -10.108,1.783 -2.545,1.296 -3.832,2.815 -3.826,4.515 0.012,3.457 5.288,6.538 9.882,8.836 6.611,3.305 14.406,4.722 21.944,6.093 1.449,0.264 2.896,0.526 4.332,0.802 3.072,0.59 6.217,1.74 9.258,2.853 C -9.308,-0.533 -4.653,1.17 0,1.17 L 0.423,1.166 c 5.327,-0.12 10.306,-2.289 15.123,-4.387 2.713,-1.182 5.519,-2.404 8.302,-3.21 0.927,-0.268 1.95,-0.504 3.033,-0.755 5.405,-1.249 12.132,-2.803 12.183,-9.944 0.011,-1.404 -0.44,-2.576 -1.34,-3.481 -1.562,-1.574 -4.485,-2.339 -8.935,-2.339 h -0.002 c -3.125,10e-4 -6.54,0.364 -9.553,0.684 -2.39,0.255 -4.455,0.474 -5.946,0.474 -11.574,0 -22.098,-0.644 -32.173,-1.97 -1.628,-0.215 -3.644,-0.557 -5.979,-0.953 -6.153,-1.045 -13.81,-2.346 -20.428,-2.346"
       style="fill:#00896a;fill-opacity:1;fill-rule:nonzero;stroke:none"
       transform="matrix(0.35277776,0,0,-0.35277776,84.761147,10.14312)"
       clip-path="url(#clipPath96)" />
  </g>
</svg>
