<?xml version="1.0" encoding="UTF-8" standalone="no"?>
<!-- Created with Inkscape (http://www.inkscape.org/) -->

<svg
   width="144.10066mm"
   height="81.020576mm"
   viewBox="0 0 144.10066 81.020576"
   version="1.1"
   id="svg1"
   inkscape:version="1.4.3 (0d15f75042, 2025-12-25)"
   sodipodi:docname="ImageOverlayLeft.svg"
   xmlns:inkscape="http://www.inkscape.org/namespaces/inkscape"
   xmlns:sodipodi="http://sodipodi.sourceforge.net/DTD/sodipodi-0.dtd"
   xmlns="http://www.w3.org/2000/svg"
   xmlns:svg="http://www.w3.org/2000/svg">
  <sodipodi:namedview
     id="namedview1"
     pagecolor="#000000"
     bordercolor="#000000"
     borderopacity="0.25"
     inkscape:showpageshadow="2"
     inkscape:pageopacity="0.0"
     inkscape:pagecheckerboard="0"
     inkscape:deskcolor="#d1d1d1"
     inkscape:document-units="mm"
     inkscape:zoom="1.0084456"
     inkscape:cx="401.60819"
     inkscape:cy="152.21446"
     inkscape:window-width="1068"
     inkscape:window-height="1186"
     inkscape:window-x="26"
     inkscape:window-y="23"
     inkscape:window-maximized="0"
     inkscape:current-layer="layer1" />
  <defs
     id="defs1">
    <clipPath
       clipPathUnits="userSpaceOnUse"
       id="clipPath82">
      <path
         d="M 29.889,33.805 H 581.225 V 758.196 H 29.889 Z"
         transform="translate(-586.86911,-136.0869)"
         id="path82" />
    </clipPath>
    <clipPath
       clipPathUnits="userSpaceOnUse"
       id="clipPath84">
      <path
         d="M 29.889,33.805 H 581.225 V 758.196 H 29.889 Z"
         transform="translate(-591.72751,-148.07421)"
         id="path84" />
    </clipPath>
    <clipPath
       clipPathUnits="userSpaceOnUse"
       id="clipPath86">
      <path
         d="M 29.889,33.805 H 581.225 V 758.196 H 29.889 Z"
         transform="translate(-529.47851,-325.66411)"
         id="path86" />
    </clipPath>
    <clipPath
       clipPathUnits="userSpaceOnUse"
       id="clipPath90">
      <path
         d="M 29.889,33.805 H 581.225 V 758.196 H 29.889 Z"
         transform="translate(-535.77641,-290.28711)"
         id="path90" />
    </clipPath>
    <clipPath
       clipPathUnits="userSpaceOnUse"
       id="clipPath92">
      <path
         d="M 29.889,33.805 H 581.225 V 758.196 H 29.889 Z"
         transform="translate(-519.14842,-278.0068)"
         id="path92" />
    </clipPath>
    <clipPath
       clipPathUnits="userSpaceOnUse"
       id="clipPath88">
      <path
         d="M 29.889,33.805 H 581.225 V 758.196 H 29.889 Z"
         transform="translate(-532.96091,-313.67091)"
         id="path88" />
    </clipPath>
    <clipPath
       clipPathUnits="userSpaceOnUse"
       id="clipPath94">
      <path
         d="M 29.889,33.805 H 581.225 V 758.196 H 29.889 Z"
         transform="translate(-593.78812,-166.4482)"
         id="path94" />
    </clipPath>
    <clipPath
       clipPathUnits="userSpaceOnUse"
       id="clipPath48">
      <path
         d="M 29.889,33.805 H 581.225 V 758.196 H 29.889 Z"
         transform="translate(-360.81541,-28.630876)"
         id="path48" />
    </clipPath>
    <clipPath
       clipPathUnits="userSpaceOnUse"
       id="clipPath70">
      <path
         d="M 29.889,33.805 H 581.225 V 758.196 H 29.889 Z"
         transform="translate(-114.0532,-219.35451)"
         id="path70" />
    </clipPath>
    <clipPath
       clipPathUnits="userSpaceOnUse"
       id="clipPath72">
      <path
         d="M 29.889,33.805 H 581.225 V 758.196 H 29.889 Z"
         transform="translate(-111.43071,-198.59181)"
         id="path72" />
    </clipPath>
    <clipPath
       clipPathUnits="userSpaceOnUse"
       id="clipPath62">
      <path
         d="M 29.889,33.805 H 581.225 V 758.196 H 29.889 Z"
         transform="translate(-320.37301,-29.976601)"
         id="path62" />
    </clipPath>
    <clipPath
       clipPathUnits="userSpaceOnUse"
       id="clipPath64">
      <path
         d="M 29.889,33.805 H 581.225 V 758.196 H 29.889 Z"
         transform="translate(-302.73101,-21.470701)"
         id="path64" />
    </clipPath>
    <clipPath
       clipPathUnits="userSpaceOnUse"
       id="clipPath66">
      <path
         d="M 29.889,33.805 H 581.225 V 758.196 H 29.889 Z"
         transform="translate(-269.23831,-22.142626)"
         id="path66" />
    </clipPath>
    <clipPath
       clipPathUnits="userSpaceOnUse"
       id="clipPath68">
      <path
         d="M 29.889,33.805 H 581.225 V 758.196 H 29.889 Z"
         transform="translate(-58.121101,-21.582001)"
         id="path68" />
    </clipPath>
    <clipPath
       clipPathUnits="userSpaceOnUse"
       id="clipPath98">
      <path
         d="M 29.889,33.805 H 581.225 V 758.196 H 29.889 Z"
         transform="translate(-233.00151,-115.59381)"
         id="path98" />
    </clipPath>
    <clipPath
       clipPathUnits="userSpaceOnUse"
       id="clipPath100">
      <path
         d="M 29.889,33.805 H 581.225 V 758.196 H 29.889 Z"
         transform="translate(-349.64841,-89.6113)"
         id="path100" />
    </clipPath>
  </defs>
  <g
     inkscape:label="Layer 1"
     inkscape:groupmode="layer"
     id="layer1"
     transform="translate(1.1953038,-217.48529)">
    <path
       id="path47"
       d="m 0,0 c -10.149,10.544 -26.663,24.215 -40.674,30.99 -19.508,9.426 -41.631,11.644 -63.026,13.789 -7.633,0.766 -15.526,1.557 -23.165,2.664 -42.378,6.143 -65.89,47.371 -76.134,71.401 -5.02,11.774 -7.985,24.156 -10.853,36.13 -1.879,7.844 -3.822,15.956 -6.319,23.777 l -0.29,0.91 c -2.568,8.074 -7.348,23.103 -15.775,27.317 -2.748,1.374 -5.672,1.487 -8.938,0.349 -22.336,-7.788 -32.859,-36.7 -41.313,-59.931 -1.215,-3.337 -2.362,-6.489 -3.496,-9.441 -10.027,-26.088 -30.437,-57.401 -54.596,-83.765 l -3.451,3.163 c 23.783,25.954 43.85,56.712 53.677,82.282 1.12,2.913 2.26,6.045 3.467,9.361 8.329,22.887 19.737,54.231 44.171,62.751 4.458,1.554 8.689,1.358 12.572,-0.583 10.196,-5.098 15.17,-20.738 18.143,-30.084 l 0.288,-0.905 c 2.55,-7.987 4.513,-16.184 6.412,-24.111 2.822,-11.786 5.741,-23.973 10.607,-35.384 9.859,-23.126 32.387,-62.789 72.5,-68.604 7.537,-1.093 15.378,-1.879 22.96,-2.639 21.8,-2.186 44.342,-4.447 64.596,-14.232 C -24.104,28.178 -7.066,14.09 3.373,3.246 Z"
       style="fill:#ffffff;fill-opacity:1;fill-rule:nonzero;stroke:none"
       transform="matrix(0.39025695,0,0,-0.39025695,127.95103,300.5251)"
       clip-path="url(#clipPath48)"
       sodipodi:nodetypes="ccccccccccccccccccccccccccc" />
    <path
       id="path61"
       d="m 0,0 c -2.401,11.291 -22.654,20.86 -30.278,24.463 -12.542,5.923 -26.373,9.896 -41.109,11.809 -29.852,3.875 -67.377,11.081 -92.795,32.592 -4.881,4.131 -9.155,9.446 -13.288,14.585 -6.435,8.003 -13.09,16.279 -22.138,20.205 -10.022,4.348 -20.771,2.087 -31.948,-6.723 -6.153,-4.852 -10.735,-11.73 -15.166,-18.381 -1.946,-2.922 -3.959,-5.944 -6.076,-8.747 -2.285,-3.028 -4.491,-6.113 -6.624,-9.096 -5.533,-7.74 -10.76,-15.051 -17.551,-21.894 -1.792,-1.806 -3.551,-3.973 -5.415,-6.268 -3.462,-4.264 -7.043,-8.674 -11.251,-11.211 l -1.365,2.266 c 3.812,2.297 7.244,6.524 10.564,10.612 1.905,2.348 3.705,4.564 5.59,6.464 6.641,6.692 11.807,13.918 17.277,21.568 2.142,2.998 4.358,6.097 6.664,9.152 2.07,2.742 4.061,5.73 5.986,8.621 4.546,6.823 9.246,13.879 15.731,18.99 11.829,9.326 23.807,11.772 34.637,7.073 9.647,-4.186 16.509,-12.721 23.146,-20.974 4.055,-5.043 8.248,-10.256 12.935,-14.224 24.891,-21.065 61.935,-28.159 91.428,-31.986 15.009,-1.95 29.106,-6.001 41.897,-12.042 8.697,-4.109 29.062,-13.731 31.735,-26.303 z"
       style="fill:#ffffff;fill-opacity:1;fill-rule:nonzero;stroke:none"
       transform="matrix(0.39025695,0,0,-0.39025695,112.1681,299.99992)"
       clip-path="url(#clipPath62)"
       sodipodi:nodetypes="ccccccccccccccccccccccccccc" />
    <path
       id="path63"
       d="m 0,0 c -4.42,12.786 -22.113,23.811 -35.921,29.367 -13.249,5.334 -28.097,9.229 -42.936,11.264 -2.506,0.344 -4.971,0.669 -7.4,0.99 -21.731,2.867 -40.499,5.344 -60.182,17.233 -4.009,2.422 -7.803,5.501 -11.82,8.76 -10.38,8.422 -21.115,17.132 -35.498,13.481 -18.183,-4.616 -31.114,-18.147 -43.619,-31.234 -2.058,-2.153 -4.254,-4.264 -6.377,-6.306 -4.209,-4.048 -8.561,-8.233 -11.994,-12.875 -3.52,-4.761 -6.113,-10.222 -8.62,-15.502 -2.066,-4.352 -4.202,-8.851 -6.855,-12.964 l -0.983,0.635 c 2.611,4.048 4.731,8.513 6.781,12.83 2.531,5.332 5.149,10.844 8.737,15.696 3.491,4.722 7.878,8.942 12.122,13.022 2.115,2.035 4.302,4.137 6.33,6.259 12.632,13.22 25.681,26.875 44.19,31.573 14.952,3.8 25.919,-5.102 36.523,-13.706 3.984,-3.233 7.748,-6.287 11.689,-8.667 19.473,-11.763 38.128,-14.224 59.729,-17.075 2.431,-0.321 4.898,-0.646 7.406,-0.99 14.933,-2.049 29.877,-5.969 43.214,-11.338 14.036,-5.648 32.041,-16.913 36.59,-30.07 z"
       style="fill:#ffffff;fill-opacity:1;fill-rule:nonzero;stroke:none"
       transform="matrix(0.39025695,0,0,-0.39025695,105.28319,303.31941)"
       clip-path="url(#clipPath64)"
       sodipodi:nodetypes="ccccccccccccccccccccccccc" />
    <path
       id="path65"
       d="m 0,0 c -13.117,21.869 -39.231,26.788 -60.516,28.63 -24.505,2.125 -40.826,9.419 -59.218,20.498 -14.788,8.909 -29.206,11.258 -45.375,7.385 -18.123,-4.336 -52.828,-27.881 -54.585,-50.018 l -1.167,0.092 c 0.799,10.07 8.309,21.519 21.147,32.24 10.816,9.033 24.292,16.422 34.333,18.824 16.488,3.946 31.183,1.556 46.251,-7.521 18.248,-10.992 34.435,-18.229 58.715,-20.334 21.562,-1.866 48.029,-6.871 61.419,-29.194 z"
       style="fill:#ffffff;fill-opacity:1;fill-rule:nonzero;stroke:none"
       transform="matrix(0.39025695,0,0,-0.39025695,92.212434,303.05719)"
       clip-path="url(#clipPath66)"
       sodipodi:nodetypes="cccccccccccc" />
    <path
       id="path67"
       d="M 0,0 -1.159,0.16 C 0.726,13.835 8.949,26.124 21.997,34.763 36.14,44.127 53.312,47.354 67.935,43.398 83.19,39.272 97.517,30.53 111.371,22.076 119.735,16.973 128.383,11.694 136.976,7.631 l -0.5,-1.059 c -8.649,4.091 -17.325,9.385 -25.714,14.505 C 96.977,29.488 82.723,38.187 67.629,42.27 53.325,46.139 36.508,42.969 22.643,33.787 9.879,25.337 1.838,13.338 0,0"
       style="fill:#ffffff;fill-opacity:1;fill-rule:nonzero;stroke:none"
       transform="matrix(0.39025695,0,0,-0.39025695,9.8224791,303.27597)"
       clip-path="url(#clipPath68)"
       sodipodi:nodetypes="ccscccccccc" />
    <path
       id="path69"
       d="m 0,0 c -6.354,0 -10.796,-9.024 -12.006,-11.79 -0.858,-1.964 -1.645,-3.985 -2.405,-5.939 -1.413,-3.631 -2.873,-7.385 -4.85,-10.908 l -0.409,-0.727 c -4.377,-7.781 -10.992,-19.536 -3.373,-26.733 3.889,-3.674 9.784,-4.788 15.485,-5.866 3.14,-0.594 6.105,-1.154 8.771,-2.114 9.081,-3.269 17.086,-8.021 23.792,-14.124 0.494,-0.449 1.156,-1.142 1.922,-1.944 2.562,-2.681 6.851,-7.169 9.603,-7.169 0.474,-0.01 1.866,0 2.552,3.146 2.206,10.131 -6.072,20.462 -12.724,28.764 -1.316,1.643 -2.561,3.196 -3.66,4.666 -3.943,5.271 -5.072,12.565 -6.163,19.62 -0.448,2.889 -0.869,5.616 -1.472,8.096 l -0.267,1.102 C 12.991,-14.414 9.969,-1.852 1.369,-0.138 0.913,-0.047 0.453,0 0,0 m 36.53,-88.484 v 0 c -3.252,0 -7.583,4.532 -10.449,7.531 -0.751,0.786 -1.4,1.465 -1.864,1.887 -6.592,5.999 -14.465,10.671 -23.4,13.887 -2.578,0.93 -5.5,1.482 -8.592,2.067 -5.867,1.108 -11.933,2.256 -16.072,6.164 -8.283,7.824 -1.122,20.552 3.158,28.157 l 0.408,0.727 c 1.936,3.451 3.381,7.166 4.779,10.758 0.765,1.966 1.556,3.999 2.424,5.985 C -11.435,-7.565 -6.872,1.17 0,1.17 c 0.529,0 1.067,-0.054 1.598,-0.159 9.334,-1.862 12.465,-14.879 14.336,-22.657 l 0.265,-1.099 c 0.615,-2.528 1.041,-5.28 1.492,-8.193 1.07,-6.914 2.176,-14.062 5.944,-19.099 1.088,-1.455 2.326,-3 3.636,-4.636 6.808,-8.495 15.279,-19.068 12.954,-29.743 -0.588,-2.7 -1.831,-4.068 -3.695,-4.068"
       style="fill:#ffffff;fill-opacity:1;fill-rule:nonzero;stroke:none"
       transform="matrix(0.39025695,0,0,-0.39025695,31.650369,226.09388)"
       clip-path="url(#clipPath70)"
       sodipodi:nodetypes="ccccscccccccccccccccssccccccccsccccccsc" />
    <path
       id="path71"
       d="m 0,0 c -0.203,0 -0.406,-0.011 -0.609,-0.031 -5.275,-0.544 -6.063,-7.296 -6.16,-13.117 -0.075,-4.57 0.781,-10.697 5.29,-13.931 2.445,-1.756 5.708,-2.847 8.516,-2.847 1.728,0 4.159,0.418 5.936,2.405 3.43,3.839 4.22,11.828 -2.152,20.294 C 8.31,-3.894 3.968,0 0,0 m 7.037,-31.096 c 0,0 0.001,0 0,0 -3.04,0 -6.565,1.175 -9.199,3.066 -4.92,3.53 -5.857,10.051 -5.777,14.901 0.067,4.052 0.225,13.542 7.21,14.262 4.626,0.468 9.527,-3.731 12.485,-7.655 4.745,-6.306 7.423,-15.81 2.09,-21.778 -1.635,-1.829 -3.99,-2.796 -6.809,-2.796"
       style="fill:#ffffff;fill-opacity:1;fill-rule:nonzero;stroke:none"
       transform="matrix(0.39025695,0,0,-0.39025695,30.626922,234.19667)"
       clip-path="url(#clipPath72)"
       sodipodi:nodetypes="ccccsccccscccccc" />
    <path
       id="path97"
       d="m 0,0 c -5.623,0 -5.843,-2.369 -5.926,-3.261 -0.692,-7.446 16.978,-10.232 22.784,-11.147 l 3.545,-0.574 c 29.494,-4.814 59.993,-9.791 85.525,-26.689 2.143,-1.418 4.498,-3.104 6.991,-4.89 10.647,-7.624 23.898,-17.113 36.028,-17.113 2.683,0 5.23,0.482 7.569,1.431 4.155,1.685 6.476,4.001 6.896,6.881 0.89,6.099 -5.87,14.971 -20.094,26.367 -11.349,9.086 -22.648,17.5 -36.074,20.623 -3.904,0.908 -8.043,1.349 -12.658,1.349 -7.522,0 -15.236,-1.197 -22.695,-2.355 -3.687,-0.572 -7.499,-1.164 -11.216,-1.598 -2.22,-0.258 -4.489,-0.389 -6.743,-0.389 -8.228,0 -16.002,1.729 -23.904,3.657 -1.184,0.288 -3.145,0.952 -5.626,1.792 C 17.441,-3.561 6.921,0 0,0 m 148.947,-66.318 c -12.98,0 -26.613,9.762 -37.568,17.607 -2.472,1.772 -4.808,3.443 -6.91,4.835 -25.059,16.585 -55.273,21.515 -84.492,26.283 l -3.53,0.572 c -7.759,1.224 -25.927,4.088 -25.006,14.004 0.24,2.583 1.919,5.662 8.559,5.662 7.356,0 18.125,-3.645 25.25,-6.056 2.42,-0.819 4.332,-1.467 5.404,-1.729 7.74,-1.886 15.344,-3.581 23.278,-3.581 2.152,0 4.318,0.125 6.437,0.372 3.667,0.428 7.454,1.016 11.116,1.584 7.559,1.173 15.376,2.386 23.101,2.386 4.819,0 9.155,-0.464 13.257,-1.417 13.966,-3.249 25.532,-11.85 37.128,-21.135 15.22,-12.194 22.108,-21.619 21.058,-28.814 -0.566,-3.874 -3.432,-6.885 -8.519,-8.949 -2.656,-1.077 -5.537,-1.624 -8.563,-1.624"
       style="fill:#ffffff;fill-opacity:1;fill-rule:nonzero;stroke:none"
       transform="matrix(0.39025695,0,0,-0.39025695,78.070774,266.58721)"
       clip-path="url(#clipPath98)"
       sodipodi:nodetypes="ccccccscccssccsccccccccssscsccsccccc" />
    <path
       id="path99"
       d="m 0,0 c -0.733,0 -1.486,-0.086 -2.238,-0.255 l -0.1,-0.023 c -1.014,-0.254 -1.6,-0.764 -1.794,-1.56 -1.08,-4.437 9.091,-15.836 11.84,-18.263 3.186,-2.809 15.135,-9.741 21.309,-9.742 h 0.001 c 0.896,0 1.626,0.149 2.169,0.441 1.417,0.76 2.12,1.609 2.146,2.593 0.087,3.288 -7.014,7.602 -10.829,9.92 -0.677,0.411 -1.274,0.774 -1.744,1.076 -2.423,1.556 -4.646,4.019 -6.999,6.625 C 9.685,-4.671 5.469,0 0,0 m 29.018,-31.013 h -0.001 c -6.552,0.001 -18.706,7.057 -22.082,10.035 -1.421,1.253 -13.56,13.847 -12.204,19.417 0.207,0.853 0.835,1.964 2.646,2.417 l 0.13,0.032 C -1.658,1.075 -0.819,1.17 0,1.17 c 5.989,0 10.382,-4.867 14.63,-9.573 2.299,-2.547 4.471,-4.953 6.763,-6.425 0.463,-0.298 1.051,-0.655 1.719,-1.061 4.3,-2.612 11.496,-6.984 11.391,-10.951 -0.038,-1.421 -0.968,-2.63 -2.763,-3.594 -0.715,-0.383 -1.631,-0.579 -2.722,-0.579"
       style="fill:#ffffff;fill-opacity:1;fill-rule:nonzero;stroke:none"
       transform="matrix(0.39025695,0,0,-0.39025695,123.59303,276.72707)"
       clip-path="url(#clipPath100)"
       sodipodi:nodetypes="cccccsscscccccsccccssccccc" />
  </g>
</svg>
